<svg xmlns="http://www.w3.org/2000/svg" width="40" height="40" viewBox="0 0 40 40">
    <g fill="none" fill-rule="evenodd">
        <path d="M0 0H40.32V40.32H0z" transform="rotate(-90 20 20.163)"/>
        <path fill="#F66357" fill-rule="nonzero" d="M31.416 22.423c0 .255-.103.493-.295.675l-10.21 9.707c-.197.188-.462.292-.75.291-.289 0-.554-.103-.752-.29L9.2 23.097c-.192-.183-.295-.42-.295-.675 0-.256.102-.493.294-.675l.924-.882c.198-.188.457-.29.741-.29.283 0 .538.101.737.29l6.854 6.54V8.172c0-.51.487-.948 1.085-.948h1.31c.58 0 1.018.42 1.018.948v19.165l6.82-6.47c.194-.185.47-.291.76-.291.286 0 .55.103.747.29l.927.882c.192.182.295.42.295.675z" transform="rotate(-90 20 20.163)"/>
    </g>
</svg>
