<svg xmlns="http://www.w3.org/2000/svg" width="24" height="24" viewBox="0 0 24 24">
    <g fill="none" fill-rule="evenodd">
        <path d="M0 0H24V24H0z"/>
        <path fill="#00014F" fill-rule="nonzero" d="M13.508 11.972l5.213-5.214c.144-.144.223-.335.223-.54 0-.204-.08-.395-.223-.539l-.457-.456c-.143-.144-.335-.223-.54-.223-.203 0-.395.079-.538.223l-5.214 5.213L6.76 5.223C6.615 5.079 6.424 5 6.219 5c-.204 0-.395.079-.539.223l-.457.456c-.297.298-.297.782 0 1.079l5.214 5.214-5.214 5.214c-.143.144-.222.335-.222.54 0 .203.079.395.222.539l.457.456c.143.144.335.223.54.223.203 0 .395-.079.538-.223l5.214-5.213 5.214 5.213c.143.144.335.223.539.223.204 0 .396-.079.54-.223l.456-.456c.144-.144.223-.336.223-.54 0-.204-.08-.395-.223-.54l-5.213-5.213z"/>
    </g>
</svg>
