<svg xmlns="http://www.w3.org/2000/svg" width="16" height="23" viewBox="0 0 16 23">
  <g fill="none" fill-rule="evenodd" stroke="#05BAEE" stroke-linejoin="round" transform="translate(0 1)">
    <line x1=".138" x2="14.992" y1="20.603" y2="20.603"/>
    <path d="M7.56499988,20.4699997 C11.2515005,20.4699997 14.2399998,17.4532065 14.2399998,13.7318036 C14.2399998,11.2508683 12.0149998,6.67360042 7.56499988,0 C3.11499995,6.67360042 0.889999986,11.2508683 0.889999986,13.7318036 C0.889999986,17.4532065 3.87849923,20.4699997 7.56499988,20.4699997 Z"/>
    <path d="M7.56499988,20.4699997 C9.28536685,20.4699997 10.6799998,19.0271856 10.6799998,17.2473841 C10.6799998,16.0608499 9.64166651,13.8717218 7.56499988,10.6799998 C5.48833325,13.8717218 4.44999993,16.0608499 4.44999993,17.2473841 C4.44999993,19.0271856 5.84463291,20.4699997 7.56499988,20.4699997 Z"/>
  </g>
</svg>
