<svg xmlns="http://www.w3.org/2000/svg" width="36" height="36" viewBox="0 0 36 36">
  <g fill="none" fill-rule="evenodd">
    <rect width="36" height="36" fill="#05BAEE" rx="10"/>
    <g stroke="#FFF" stroke-linejoin="round" stroke-width=".85" transform="translate(11 9)">
      <line x1=".117" x2="12.744" y1="17.513" y2="17.513"/>
      <path d="M6.43025008,17.3995002 C9.56377571,17.3995002 12.1040001,14.835226 12.1040001,11.6720334 C12.1040001,9.5632383 10.2127501,5.67256051 6.43025008,0 C2.64775003,5.67256051 0.756500009,9.5632383 0.756500009,11.6720334 C0.756500009,14.835226 3.29672444,17.3995002 6.43025008,17.3995002 Z"/>
      <path d="M6.43025008,17.3995002 C7.89256204,17.3995002 9.07800011,16.1731082 9.07800011,14.6602769 C9.07800011,13.6517228 8.19541676,11.7909638 6.43025008,9.07800011 C4.66508339,11.7909638 3.78250005,13.6517228 3.78250005,14.6602769 C3.78250005,16.1731082 4.96793811,17.3995002 6.43025008,17.3995002 Z"/>
    </g>
  </g>
</svg>
