<svg xmlns="http://www.w3.org/2000/svg" width="38" height="38" viewBox="0 0 38 38">
    <g fill="none" fill-rule="evenodd">
        <rect width="37.978" height="38" fill="#CDF1FC" fill-rule="nonzero" rx="8"/>
        <g stroke="#05BAEE" stroke-linejoin="round">
            <path d="M.138 20.603L14.992 20.603M7.565 20.47c3.687 0 6.675-3.017 6.675-6.738 0-2.481-2.225-7.058-6.675-13.732C3.115 6.674.89 11.25.89 13.732c0 3.721 2.988 6.738 6.675 6.738z" transform="translate(11 10)"/>
            <path d="M7.565 20.47c1.72 0 3.115-1.443 3.115-3.223 0-1.186-1.038-3.375-3.115-6.567-2.077 3.192-3.115 5.38-3.115 6.567 0 1.78 1.395 3.223 3.115 3.223z" transform="translate(11 10)"/>
        </g>
    </g>
</svg>
