<svg xmlns="http://www.w3.org/2000/svg" width="35" height="49" viewBox="0 0 35 49">
    <g fill="none">
        <path fill="#FFD6A6" d="M31.547 42.52v3.926c0 .442-.345.8-.772.8H2.612c-.427 0-.772-.358-.772-.8V42.52c0-4.115 3.217-7.457 7.192-7.457 2.2 0 3.996-1.842 3.996-4.134v-.683l.015-.037c-.5-.214-.98-.472-1.433-.77-.028.031-2.56.21-6.215 1.176-1.074.283-2.193-.271-2.662-1.313-3.809-8.462-2.087-20.8 5.28-25.956 4.86-3.402 12.514-3.393 17.361 0 5.928 4.15 6.81 11.175 7.115 13.76.622 5.259-.738 9.589-1.877 12.182-.463 1.055-1.598 1.623-2.702 1.319-6.06-1.153-6.124-1.157-6.134-1.167-.453.297-.931.555-1.432.769l.015.037v.683c0 2.29 1.795 4.134 3.996 4.134 3.962 0 7.192 3.33 7.192 7.457z" transform="translate(.432)"/>
        <path fill="#D6F4FC" d="M31.547 42.52v3.926c0 .442-.345.8-.772.8H2.612c-.427 0-.772-.358-.772-.8V42.52c0-4.114 3.216-7.457 7.192-7.457.883 0 1.699-.296 2.36-.798l.174 1.165 4.655 3.737c.279.223.666.223.945 0l4.655-3.737.173-1.165c.662.502 1.478.798 2.36.798 3.963 0 7.193 3.33 7.193 7.457z" transform="translate(.432)"/>
        <path fill="#FFDFBA" d="M25.336 14.613c.472-.087.906.29.906.787v5.659c0 3.53-1.782 6.629-4.465 8.38 0 .002 0 .002 0 0-3.1 2.03-7.08 2.023-10.167 0 0 .002 0 .002 0 0-2.683-1.751-4.465-4.85-4.465-8.38v-5.605c0-.512.455-.892.937-.782 3.284.752 6.652 1.07 10.004.948.229-.008.432-.154.518-.374.243-.625.484-1.259.714-1.887.17-.465.783-.529 1.033-.105.28.474.502 1.007.642 1.586.075.308.363.506.664.45l3.679-.677z" transform="translate(.432)"/>
        <path fill="#42434D" d="M26.242 21.059V15.4c0-.497-.434-.874-.906-.787l-3.679.677c-.301.056-.59-.142-.664-.45-.11-.45-.294-.985-.613-1.537-.301-.52-.903-.378-1.062.056-.23.629-.471 1.263-.714 1.887-.086.22-.29.366-.518.374-3.348.122-6.716-.195-10.005-.948-.481-.11-.936.27-.936.782v5.605c0 3.53 1.782 6.629 4.464 8.38-2.324.27-4.408.699-6.214 1.176-1.074.283-2.193-.271-2.662-1.313-3.809-8.462-2.087-20.8 5.28-25.956 4.86-3.402 12.514-3.393 17.361 0 5.928 4.15 6.81 11.175 7.115 13.76.622 5.259-.739 9.589-1.877 12.182-.463 1.055-1.598 1.623-2.702 1.319l-6.133-1.167c2.683-1.752 4.465-4.851 4.465-8.381z" transform="translate(.432)"/>
        <path fill="#F7C388" d="M20.468 31.888c-2.377 1.031-4.988 1.111-7.549 0 .131-.563.11-.927.11-1.642l.014-.037c2.323 1 4.974 1.001 7.301 0l.015.037c0 .715-.022 1.08.109 1.642z" transform="translate(.432)"/>
        <path fill="#FE4F60" d="M21.82 35.43l-1.755 11.816h-6.743L11.566 35.43l4.655 3.737c.278.223.667.223.945 0l4.655-3.737z" transform="translate(.432)"/>
        <path fill="#E8F8FC" d="M11.942 37.96c-4.522.121-7.305 3.652-7.305 7.46v1.826H2.612c-.427 0-.772-.358-.772-.8V42.52c0-4.114 3.216-7.457 7.192-7.457.883 0 1.699-.296 2.36-.798l.55 3.696z" transform="translate(.432)"/>
        <path fill="#BDEFFC" d="M21.445 37.96c4.522.121 7.305 3.652 7.305 7.46v1.826h2.025c.427 0 .772-.358.772-.8V42.52c0-4.114-3.216-7.457-7.192-7.457-.883 0-1.699-.296-2.36-.798-.22 1.472-.105.696-.55 3.696z" transform="translate(.432)"/>
        <path fill="#E84857" d="M15.251 47.246L13.322 47.246 11.566 35.43 13.757 37.188z" transform="translate(.432)"/>
        <path fill="#FFEBD2" d="M14.415 27.38c1.576 1.06.301 3.562-1.43 2.805-3.426-1.499-5.84-5.018-5.84-9.126v-5.605c0-.511.455-.892.936-.781.235.053.475.106.722.158.717.15 1.235.801 1.235 1.56v2.668c0 3.373 1.64 6.485 4.377 8.322z" transform="translate(.432)"/>
        <path fill="#4D4E59" d="M17.913.828c1.806.13 1.834 2.873.031 3.048C5.522 5.076 1.948 18.883 4.387 28.69c.264 1.062-1.19 1.643-1.654.61C-2.3 18.122 2.191-.308 17.913.829z" transform="translate(.432)"/>
        <path fill="#000" d="M32.319 42.52v4.726c0 .442-.346.8-.772.8-.426 0-.772-.358-.772-.8V42.52c0-3.68-2.871-6.657-6.42-6.657-.619 0-1.215-.121-1.766-.347l-1.761 11.852c-.059.395-.387.678-.762.678-.473 0-.835-.437-.763-.922l1.861-12.527c-.339-.317-.639-.687-.886-1.107-.221-.377-.106-.87.258-1.1.364-.23.839-.11 1.06.268.586.996 1.618 1.605 2.758 1.605 4.402 0 7.965 3.693 7.965 8.257zm-12.745-5.286c-.261-.35-.746-.413-1.083-.143l-1.798 1.443-4.412-3.541-.059-.397c.918-.857 1.466-2.015 1.562-3.272 6.587 2.011 13.177-3.114 13.23-10.182v-2.796c0-.442-.346-.8-.772-.8-.426 0-.771.358-.771.8v2.712c0 5.018-3.938 9.1-8.778 9.1s-8.777-4.082-8.777-9.1v-5.604c3.357.767 6.914 1.119 10.581.95.3-.013.566-.207.68-.496.258-.653.51-1.313.715-1.865.583 1.214.277 1.642.759 2 .169.126.38.175.584.138l5.142-.948c.42-.077.7-.492.625-.927-.075-.435-.475-.725-.895-.648l-4.41.813c-.271-1.002-.766-1.914-1.45-2.672-.394-.436-1.09-.286-1.288.27-.328.928-.669 1.843-1.023 2.756-3.583.118-7.154-.275-10.607-1.156-.485-.124-.956.257-.956.777v6.735c0 2.752 1.146 5.64 3.306 7.718-1.505.239-3.003.552-4.474.94-.714.189-1.46-.18-1.773-.875C-.039 21.25 1.166 9.104 8.445 4.009 13.07.77 20.317.77 24.942 4.009c5.692 3.984 6.512 10.916 6.782 13.194.586 4.961-.663 9.13-1.814 11.753-.312.712-1.069 1.081-1.8.878l-.606-.168c-.412-.114-.835.14-.945.567-.11.427.135.865.547.98l.605.167c1.464.406 2.979-.337 3.604-1.761 1.233-2.81 2.57-7.28 1.94-12.61-.29-2.457-1.175-9.934-7.45-14.326-5.109-3.577-13.114-3.577-18.224 0C-.177 8.113-1.895 20.91 2.034 29.64c.626 1.391 2.12 2.127 3.552 1.75 1.92-.507 3.889-.884 5.857-1.124.264.163.535.314.814.452v.21c0 .892-.336 1.73-.944 2.359-1.067 1.103-2.43.976-2.28.976-4.402 0-7.965 3.693-7.965 8.257v4.726c0 .442.346.8.772.8.426 0 .772-.358.772-.8V42.52c0-3.68 2.871-6.657 6.42-6.657.615 0 1.211-.12 1.766-.349l1.761 11.854c.066.442.465.736.88.668.421-.067.71-.475.645-.912l-1.461-9.834 3.598 2.888c.278.223.667.224.945 0l2.27-1.822c.337-.27.398-.773.138-1.122z" transform="translate(.432)"/>
    </g>
</svg>
