<svg xmlns="http://www.w3.org/2000/svg" width="36" height="36" viewBox="0 0 36 36">
  <defs>
    <filter id="luceicona-a">
      <feColorMatrix in="SourceGraphic" values="0 0 0 0 1.000000 0 0 0 0 1.000000 0 0 0 0 1.000000 0 0 0 1.000000 0"/>
    </filter>
  </defs>
  <g fill="none" fill-rule="evenodd">
    <rect width="36" height="36" fill="#F29100" fill-rule="nonzero" rx="10"/>
    <g stroke-linejoin="round" filter="url(#luceicona-a)">
      <g transform="translate(9 7)">
        <path fill="#F29100" fill-rule="nonzero" stroke="#F29100" stroke-width=".1" d="M8.7084099,4.42359991 C10.1901323,4.42359991 11.5363004,5.02917738 12.5120195,6.00545465 C13.4877282,6.98172155 14.092958,8.32864409 14.092958,9.81119981 C14.092958,11.3227136 13.4346539,12.7762067 12.3129334,13.801745 C11.447686,14.6674873 11.5171538,16.3752757 11.521399,16.485346 L11.521399,16.485346 L6.23185711,16.8898823 C6.10352576,16.7653284 6.03407034,16.4114445 5.95306064,15.9688174 C5.82782419,15.2845406 5.6665064,14.3838868 5.14455918,13.8615008 C4.00182651,12.8537704 3.32386181,11.3615751 3.32386181,9.81119981 C3.32386181,8.32864409 3.92909156,6.98172155 4.90480027,6.00545465 C5.88051936,5.02917738 7.22668748,4.42359991 8.7084099,4.42359991 Z M8.68922088,5.1571999 C7.40779715,5.1571999 6.24975718,5.67479012 5.41208142,6.5129451 C4.57439532,7.35111042 4.05709953,8.50982851 4.05709953,9.79199981 C4.05709953,11.1406352 4.64561144,12.413286 5.6517617,13.2870481 C6.45014855,14.1046751 6.60176963,15.4551974 6.62675469,16.1163997 L10.7708788,16.1163997 C10.7958287,15.4582429 10.946652,14.1623832 11.7417195,13.2910968 C12.7520193,12.413286 13.3213422,11.1405752 13.3213422,9.79199981 C13.3213422,8.50982851 12.8040464,7.35111042 11.9663603,6.5129451 C11.1286846,5.67479012 9.97064461,5.1571999 8.68922088,5.1571999 Z"/>
        <path fill="#F29100" fill-rule="nonzero" stroke="#F29100" stroke-width=".1" d="M8.33193093,6.70279999 C9.28471475,6.70279999 10.1434007,7.08882804 10.7648385,7.71062138 C11.3893943,8.33553448 11.7743329,9.19857028 11.7743329,10.1471999 C11.7743329,10.2468322 11.8180495,10.3412438 11.8873112,10.4105451 C11.9565836,10.4798572 12.0509574,10.5235999 12.1505463,10.5235999 C12.2501352,10.5235999 12.344509,10.4798572 12.4137814,10.4105451 C12.4830431,10.3412438 12.5267597,10.2468322 12.5267597,10.1471999 C12.536749,8.9580021 12.0431683,7.88166799 11.1999411,7.16107475 C10.4002064,6.47764882 9.28636486,6.11421695 8.08848649,6.50688762 C8.06538288,6.5144611 8.04247097,6.52224276 8.01975024,6.53022909 C8.03407391,6.55160739 8.05050254,6.5715415 8.33193093,6.70279999 Z"/>
        <path fill="#F29100" fill-rule="nonzero" d="M10.8192023 18L6.55923944 18C6.11789194 18 5.75330052 18.3648 5.75330052 18.8064 5.75330052 19.248 6.11789194 19.6128 6.55923944 19.6128L10.8000133 19.6128C11.2605498 19.5936 11.6251412 19.248 11.6251412 18.8064 11.6251412 18.3648 11.2605498 18 10.8192023 18zM10.8192023 18.9408L6.55923944 18.9408C6.48248336 18.9408 6.40572727 18.8832 6.40572727 18.7872 6.40572727 18.6912 6.46329433 18.6336 6.55923944 18.6336L10.8000133 18.6336C10.8767694 18.6336 10.9535255 18.6912 10.9535255 18.7872 10.9535255 18.8832 10.8959584 18.9408 10.8192023 18.9408zM10.1859646 20L7.19247717 20C6.75112966 20 6.38653825 20.3648 6.38653825 20.8064 6.38653825 21.248 6.75112966 21.6128 7.19247717 21.6128L10.1859646 21.6128C10.6273121 21.6128 10.9919035 21.248 10.9919035 20.8064 10.9919035 20.3456 10.6273121 20 10.1859646 20zM10.1859646 20.9408L7.19247717 20.9408C7.11572108 20.9408 7.03896499 20.8832 7.03896499 20.7872 7.03896499 20.6912 7.09653206 20.6336 7.19247717 20.6336L10.1859646 20.6336C10.2627207 20.6336 10.3394768 20.6912 10.3394768 20.7872 10.3394768 20.8832 10.2627207 20.9408 10.1859646 20.9408z"/>
        <path fill="#F29100" fill-rule="nonzero" stroke="#F29100" stroke-width=".1" d="M8.304677.305134697L9.10216199 3.02752237 8.8753216.088549983C8.76493199.0705104238 8.58329495.117085833 8.304677.305134697zM12.5005144 4.07439302C12.566095 4.11816441 12.6330652 4.13959992 12.6997265 4.13959992 12.8331535 4.13959992 12.944498 4.07303734 13.0112539 3.96171389L14.23808 2.12052399C14.3018784 2.04660817 14.3248643 1.94550553 14.3082258 1.84977959 14.2916699 1.75452877 14.235788 1.66481581 14.1462249 1.60880687 14.0642925 1.54709714 13.9686498 1.52916844 13.8799257 1.54460754 13.7837696 1.56133992 13.6955291 1.61790289 13.637672 1.69894906L12.5005144 4.07439302zM3.25559862 2.0106148L5.38013642 3.83268898 3.62560965 1.50531595C3.52191892 1.55127501 3.39244297 1.69371076 3.25559862 2.0106148zM.180890528 5.60930123L2.92880699 6.19679877.255483243 5.00571785C.187606975 5.09422669.143739178 5.27513855.180890528 5.60930123zM14.7274144 6.51195032C14.7596012 6.57636087 14.8072869 6.62526075 14.8629808 6.65869622 14.9224693 6.69440972 14.9911987 6.71239987 15.0599762 6.71239987 15.1258803 6.71239987 15.1918885 6.69071407 15.2358592 6.66871611L17.1945098 5.61200391C17.2810963 5.56871256 17.3427291 5.48721909 17.3711555 5.3937647 17.3999038 5.29925194 17.3943548 5.19317366 17.3498182 5.10404945 17.3058377 5.01603805 17.2243834 4.9543738 17.1309797 4.92593034 17.0365024 4.89715991 16.930464 4.90271284 16.8413733 4.94728366L14.7274144 6.51195032z"/>
      </g>
    </g>
  </g>
</svg>
