<svg xmlns="http://www.w3.org/2000/svg" width="19" height="21" viewBox="0 0 19 21">
  <g fill="#F29100" transform="translate(.994)">
    <path d="M8.7084099,4.47359991 C5.77248955,4.47359991 3.37386181,6.87359986 3.37386181,9.81119981 C3.37386181,11.3471998 4.04547757,12.8255997 5.17762987,13.8239997 C6.02194683,14.6687997 5.94519074,16.4735999 5.92600172,16.4927997 C5.92600172,16.5887997 5.94519074,16.6655997 6.02194683,16.7423997 C6.0795139,16.7999997 6.17545901,16.8383997 6.25221509,16.8383997 L11.1454157,16.8383997 C11.2413608,16.8383997 11.3181169,16.7999997 11.3756839,16.7423997 C11.433251,16.6847997 11.4716291,16.5887997 11.4716291,16.4927997 C11.4716291,16.4735999 11.3756839,14.6687997 12.2200009,13.8239997 C12.2391899,13.8047997 12.258379,13.7855997 12.277568,13.7663997 C13.3905312,12.7487997 14.042958,11.3087998 14.042958,9.81119981 C14.042958,6.87359986 11.6443303,4.47359991 8.7084099,4.47359991 Z M11.7786534,13.3247997 C11.7594644,13.3439997 11.7210863,13.3823997 11.7210863,13.4015997 C10.9727145,14.2079997 10.8383913,15.5327997 10.8192023,16.1663997 L6.57842847,16.1663997 C6.55923944,15.5327997 6.42491629,14.1503997 5.61897737,13.3247997 C4.60195921,12.4415998 4.00709953,11.1551998 4.00709953,9.79199981 C4.00709953,7.19999986 6.09870292,5.1071999 8.68922088,5.1071999 C11.2797388,5.1071999 13.3713422,7.19999986 13.3713422,9.79199981 C13.3713422,11.1551998 12.7956716,12.4415998 11.7786534,13.3247997 Z"/>
    <path d="M8.68922088 5.83679988C8.51651968 5.83679988 8.3630075 5.99039988 8.3630075 6.16319988 8.3630075 6.33599987 8.51651968 6.48959987 8.68922088 6.48959987 10.6273121 6.48959987 12.1816229 8.06399984 12.1816229 9.9839998 12.1816229 10.1567998 12.335135 10.3103998 12.5078362 10.3103998 12.6805374 10.3103998 12.8340496 10.1567998 12.8340496 9.9839998 12.8532386 7.69919985 10.9919035 5.83679988 8.68922088 5.83679988zM10.8192023 17.2031997L6.55923944 17.2031997C6.11789194 17.2031997 5.75330052 17.5679997 5.75330052 18.0095996 5.75330052 18.4511996 6.11789194 18.8159996 6.55923944 18.8159996L10.8000133 18.8159996C11.2605498 18.7967996 11.6251412 18.4511996 11.6251412 18.0095996 11.6251412 17.5679997 11.2605498 17.2031997 10.8192023 17.2031997zM10.8192023 18.1439996L6.55923944 18.1439996C6.48248336 18.1439996 6.40572727 18.0863996 6.40572727 17.9903996 6.40572727 17.8943996 6.46329433 17.8367996 6.55923944 17.8367996L10.8000133 17.8367996C10.8767694 17.8367996 10.9535255 17.8943996 10.9535255 17.9903996 10.9535255 18.0863996 10.8959584 18.1439996 10.8192023 18.1439996zM10.1859646 19.1423996L7.19247717 19.1423996C6.75112966 19.1423996 6.38653825 19.5071996 6.38653825 19.9487996 6.38653825 20.3903996 6.75112966 20.7551996 7.19247717 20.7551996L10.1859646 20.7551996C10.6273121 20.7551996 10.9919035 20.3903996 10.9919035 19.9487996 10.9919035 19.4879996 10.6273121 19.1423996 10.1859646 19.1423996zM10.1859646 20.0831996L7.19247717 20.0831996C7.11572108 20.0831996 7.03896499 20.0255996 7.03896499 19.9295996 7.03896499 19.8335996 7.09653206 19.7759996 7.19247717 19.7759996L10.1859646 19.7759996C10.2627207 19.7759996 10.3394768 19.8335996 10.3394768 19.9295996 10.3394768 20.0255996 10.2627207 20.0831996 10.1859646 20.0831996zM8.68922088 2.87999994C8.8811111 2.87999994 9.01543425 2.72639995 9.01543425 2.55359995L9.01543425.326399994C9.01543425.153599997 8.86192207 0 8.68922088 0 8.51651968 0 8.3630075.153599997 8.3630075.326399994L8.3630075 2.55359995C8.3630075 2.72639995 8.51651968 2.87999994 8.68922088 2.87999994zM14.1197141 1.65119997C13.9662019 1.53599997 13.7743117 1.59359997 13.6783666 1.72799997L12.4502692 3.57119993C12.335135 3.72479993 12.3735131 3.93599992 12.5270253 4.03199992 12.5845923 4.07039992 12.6421594 4.08959992 12.6997265 4.08959992 12.8148606 4.08959992 12.9108057 4.03199992 12.9683728 3.93599992L14.1964702 2.09279996C14.3116043 1.95839996 14.2732263 1.74719997 14.1197141 1.65119997zM4.79384943 4.01279992C4.85141649 4.01279992 4.90898356 3.99359992 4.96655063 3.95519992 5.1200628 3.85919992 5.15844084 3.64799993 5.06249573 3.49439993L3.87277638 1.63199997C3.77683127 1.47839997 3.56575203 1.43999997 3.41223985 1.53599997 3.25872767 1.63199997 3.22034963 1.84319996 3.31629474 1.99679996L4.5060141 3.85919992C4.58277019 3.97439992 4.6787153 4.01279992 4.79384943 4.01279992zM2.47197778 6.04799988L.533886562 4.9919999C.380374387 4.9151999.169295146 4.9727999.0925390582 5.1263999-.00340605139 5.2799999.0541610144 5.49119989.226862212 5.56799989L2.16495343 6.62399987C2.22252049 6.64319987 2.26089853 6.66239987 2.3184656 6.66239987 2.43359973 6.66239987 2.54873386 6.60479987 2.60630093 6.48959987 2.68305702 6.33599987 2.62548995 6.12479988 2.47197778 6.04799988zM17.3050917 5.1263999C17.2283356 4.9727999 17.0172564 4.9151999 16.8637442 4.9919999L14.906464 6.04799988C14.7529518 6.12479988 14.6953847 6.33599987 14.7721408 6.48959987 14.8297079 6.60479987 14.944842 6.66239987 15.0599762 6.66239987 15.1175432 6.66239987 15.1751103 6.64319987 15.2134883 6.62399987L17.1707686 5.56799989C17.3242807 5.49119989 17.3818478 5.2799999 17.3050917 5.1263999z"/>
  </g>
</svg>
