<svg xmlns="http://www.w3.org/2000/svg" width="32" height="32" viewBox="0 0 32 32">
    <g fill="none">
        <rect width="31.982" height="32" fill="#FCE9CC" rx="8"/>
        <g fill="#F29100">
            <path d="M7.333 3.767c-2.472 0-4.492 2.021-4.492 4.495 0 1.294.566 2.539 1.52 3.38.71.71.645 2.23.63 2.247 0 .08.015.145.08.21.049.048.13.08.194.08h4.12c.081 0 .146-.032.195-.08.048-.049.08-.13.08-.21 0-.016-.08-1.536.63-2.248l.049-.048c.937-.857 1.487-2.07 1.487-3.33 0-2.475-2.02-4.496-4.493-4.496zm2.586 7.454c-.016.016-.049.048-.049.065-.63.679-.743 1.794-.76 2.328H5.54c-.016-.534-.13-1.698-.808-2.393-.857-.744-1.358-1.827-1.358-2.975 0-2.183 1.762-3.945 3.943-3.945 2.182 0 3.943 1.762 3.943 3.945 0 1.148-.485 2.231-1.341 2.975z" transform="translate(8.416 7.579)"/>
            <path d="M7.317 4.915c-.145 0-.274.13-.274.275 0 .146.129.275.274.275 1.632 0 2.941 1.326 2.941 2.943 0 .145.13.274.275.274.145 0 .275-.129.275-.274.016-1.924-1.552-3.493-3.49-3.493zM9.11 14.487H5.525c-.372 0-.68.307-.68.679 0 .372.308.68.68.68h3.57c.389-.017.696-.308.696-.68 0-.372-.307-.68-.68-.68zm0 .792H5.525c-.065 0-.13-.048-.13-.13 0-.08.049-.129.13-.129h3.57c.065 0 .13.049.13.13 0 .08-.048.13-.113.13zM8.578 16.12H6.057c-.372 0-.679.307-.679.679 0 .372.307.68.679.68h2.52c.372 0 .68-.308.68-.68 0-.388-.308-.68-.68-.68zm0 .792H6.057c-.065 0-.13-.048-.13-.13 0-.08.049-.129.13-.129h2.52c.065 0 .13.049.13.13 0 .08-.065.13-.13.13zM7.317 2.425c.162 0 .275-.13.275-.275V.275c0-.146-.13-.275-.275-.275-.145 0-.274.13-.274.275V2.15c0 .146.129.275.274.275zM11.89 1.39c-.129-.097-.29-.048-.371.065l-1.035 1.552c-.097.13-.064.308.065.388.049.033.097.049.146.049.096 0 .177-.049.226-.13l1.034-1.552c.097-.113.065-.29-.065-.372zM4.037 3.38c.048 0 .097-.017.145-.05.13-.08.162-.258.081-.387L3.261 1.374c-.08-.129-.258-.161-.388-.08-.129.08-.161.258-.08.388L3.795 3.25c.064.097.145.13.242.13zM2.082 5.093L.45 4.203c-.13-.064-.307-.015-.372.114-.08.13-.032.307.113.372l1.632.89c.049.015.08.031.13.031.096 0 .193-.048.242-.145.064-.13.016-.307-.113-.372zM14.573 4.317c-.065-.13-.243-.178-.372-.113l-1.648.89c-.13.064-.178.242-.113.37.048.098.145.146.242.146.049 0 .097-.016.13-.032l1.648-.89c.129-.064.177-.242.113-.371z" transform="translate(8.416 7.579)"/>
        </g>
    </g>
</svg>
