<svg xmlns="http://www.w3.org/2000/svg" width="125" height="27" viewBox="0 0 125 27">
    <g fill="none" fill-rule="evenodd">
        <path fill="#05BAEE" fill-rule="nonzero" d="M19.264 12.152s.28 0 .112-.224L13.104.28s-.112-.224-.224 0L6.664 11.928s-.112.224.112.224h12.488z" transform="translate(1 1)"/>
        <path stroke="#05BAEE" stroke-width="1.528" d="M19.264 12.152s.28 0 .112-.224L13.104.28s-.112-.224-.224 0L6.664 11.928s-.112.224.112.224h12.488z" transform="translate(1 1)"/>
        <path fill="#F29100" fill-rule="nonzero" d="M4.928 15.736s-.28 0-.392.224L.224 24.08s-.112.224.112.224h25.256s.28 0 .112-.224l-4.312-8.064s-.112-.224-.392-.224H4.928v-.056z" transform="translate(1 1)"/>
        <path stroke="#F29100" stroke-width="1.528" d="M4.928 15.736s-.28 0-.392.224L.224 24.08s-.112.224.112.224h25.256s.28 0 .112-.224l-4.312-8.064s-.112-.224-.392-.224H4.928v-.056z" transform="translate(1 1)"/>
        <path fill="#575756" fill-rule="nonzero" d="M118.328 16.296c.448.168.728.28.84.392.168.112.224.28.168.504-.056.28-.28.504-.728.616-.448.112-1.288.112-2.576.112-1.848 0-3.024 0-3.584-.056l-.336 2.184c1.904.28 3.584.392 4.928.392.896 0 1.624-.056 2.184-.112s1.12-.224 1.624-.448.896-.504 1.176-.952c.28-.448.448-.952.56-1.624.112-.84-.056-1.568-.392-2.072-.392-.504-1.008-.952-1.96-1.344l-2.744-1.064c-.504-.224-.84-.336-1.008-.504-.168-.112-.224-.336-.224-.56.056-.28.224-.448.504-.504.28-.056.84-.056 1.736-.056.056 0 1.512 0 4.424.056l.336-2.128c-1.4-.28-3.136-.448-5.208-.448-1.68 0-2.912.224-3.696.672-.784.448-1.232 1.176-1.344 2.24-.112.84 0 1.568.392 2.128.336.56 1.008 1.008 1.904 1.4l2.688 1.12c.112-.056.224 0 .336.056m-11.368-.672c-1.232 1.4-2.352 2.072-3.36 2.128-.56.056-.896-.168-.952-.56-.112-.392-.056-1.344.112-2.744.224-1.4.504-2.352.896-2.688.392-.392 1.12-.56 2.24-.56h1.736l-.672 4.424zm4.256-6.272c-.672-.168-1.568-.336-2.688-.504-1.12-.112-2.072-.224-2.912-.224-.784 0-1.4.056-1.848.112-.504.056-1.008.224-1.512.392-.504.224-.952.504-1.288.952-.336.392-.616.952-.896 1.68s-.504 1.568-.616 2.576c-.336 2.184-.224 3.752.28 4.704s1.456 1.4 2.856 1.4c1.904-.056 3.416-.784 4.592-2.296v2.016h2.632l1.4-10.808zM93.52 15.624c-1.232 1.344-2.352 2.072-3.36 2.128-.56.056-.896-.168-1.008-.56-.112-.392-.056-1.344.168-2.744.224-1.4.504-2.296.84-2.688.336-.392 1.064-.56 2.184-.56h1.792l-.616 4.424zM91.504 8.68c-.672 0-1.176 0-1.624.056-.448.056-.896.168-1.344.392-.448.224-.84.504-1.176.952-.28.392-.56.952-.84 1.68-.28.728-.448 1.568-.616 2.632-.336 2.128-.224 3.696.28 4.648.504.952 1.456 1.4 2.8 1.344 1.064 0 2.016-.28 2.856-.728.84-.504 1.568-1.12 2.128-1.96-.168.224-.28.504-.392.784-.112.28-.224.616-.28.952-.112.336-.168.616-.224.784-.448 1.4-1.904 2.072-4.312 2.072h-3.192l-.224 1.96c1.008.392 2.408.616 4.2.616 2.072 0 3.696-.448 4.872-1.344 1.176-.896 1.848-2.352 2.128-4.368l1.4-9.856c-2.016-.392-4.088-.616-6.44-.616m-6.552 0c-1.456 0-3.08.784-4.76 2.408V8.96H77.56l-1.568 11.2h3.36l.952-7c1.008-.504 1.736-.896 2.24-1.064.504-.224 1.008-.28 1.512-.28h.84l.728-3.136h-.672zM68.04 11.648c.336-.392.952-.56 1.848-.56.784 0 1.232.056 1.512.168.224.112.336.448.28.952-.056.504-.224.896-.504 1.064-.28.224-.728.336-1.344.336l-2.632.224c.168-1.064.448-1.792.84-2.184m1.176 6.104c-.784 0-1.344-.112-1.68-.392-.336-.28-.56-.784-.56-1.512l3.304-.224c1.512-.112 2.576-.392 3.304-.84.728-.448 1.12-1.232 1.288-2.296.168-1.288-.056-2.24-.784-2.912-.728-.672-2.016-.952-4.032-.952-2.128 0-3.696.392-4.648 1.232-.952.784-1.568 2.296-1.848 4.48-.224 2.072.056 3.64.84 4.592.784 1.008 2.296 1.512 4.424 1.512 2.016 0 3.696-.28 4.928-.784l-.224-2.128c-1.4.168-2.8.224-4.312.224M51.296 8.96l-1.568 11.2h3.36l.952-6.888c1.512-1.176 2.632-1.736 3.528-1.792.336 0 .616.056.728.28.112.168.112.56.056 1.064l-1.008 7.336h3.36l1.176-8.344c.168-1.008-.056-1.792-.56-2.352-.504-.56-1.232-.84-2.184-.84-1.68 0-3.36.84-5.096 2.52v-2.24h-2.744v.056zm-2.856 0h-3.36l-1.568 11.2h3.36l1.568-11.2zm-2.8-4.032l-.168 1.232c-.112.672.224 1.064.896 1.064h1.456c.616 0 1.008-.28 1.064-.896l.168-1.232c.056-.672-.224-1.064-.952-1.064h-1.4c-.672 0-1.008.28-1.064.896m-7.392 9.912c.168.224.224.56.112 1.064-.112.672-.336 1.12-.728 1.288-.392.224-1.12.28-2.184.28-.056 0-1.68-.056-4.872-.112l-.336 2.52c1.848.392 3.64.616 5.376.616 2.128 0 3.64-.28 4.536-.896.896-.616 1.456-1.736 1.68-3.472.168-1.232.056-2.184-.336-2.912-.392-.728-1.176-1.288-2.352-1.736l-2.8-1.064c-.616-.224-.952-.448-1.12-.672-.168-.224-.224-.56-.112-1.064.112-.672.336-1.12.672-1.288.336-.168.952-.224 1.904-.224 1.904 0 3.528 0 4.872.056l.336-2.352c-1.456-.448-3.136-.616-5.096-.616s-3.416.28-4.368.84c-.952.56-1.512 1.68-1.736 3.36-.112 1.12 0 2.072.392 2.8.392.728 1.176 1.344 2.296 1.792l2.968 1.232c.392.168.728.336.896.56" transform="translate(1 1)"/>
    </g>
</svg>
