<svg xmlns="http://www.w3.org/2000/svg" width="38" height="38" viewBox="0 0 38 38">
    <g fill="none" fill-rule="evenodd">
        <rect width="37.978" height="38" fill="#E8DEEA" rx="8"/>
        <path fill="#8A5895" fill-rule="nonzero" stroke="#8A5895" stroke-width=".3" d="M25.173 15.609c1.3-1.046.851-3.114-.774-3.542-.425-.112-.865-.089-1.268.062L21.84 9.928c-.526-.896-1.83-.92-2.39-.046-1.588 2.48-3.704 4.588-6.217 6.188-.143.091-.196.28-.112.432l2.168 3.695c.092.156.295.21.455.12.16-.091.214-.292.122-.448l-2.006-3.42c2.396-1.576 4.518-3.662 6.155-6.217.293-.458.973-.443 1.247.024l4.625 7.882c.275.468-.054 1.054-.602 1.075-3.073.118-6.082.892-8.833 2.276l-3.346 1.9c-.558.317-1.273.128-1.595-.42L9.823 20.09c-.322-.549-.13-1.253.427-1.57l2.032-1.154c.16-.09.214-.29.122-.448-.092-.157-.296-.21-.455-.12l-2.032 1.155c-.876.497-1.177 1.603-.672 2.465l1.689 2.878c.506.862 1.63 1.158 2.505.66l.077-.043 2.085 3.552c.3.51.961.686 1.48.39l.731-.415c.52-.294.697-.946.397-1.456l-1.477-2.518c-.092-.157-.296-.21-.456-.12-.159.09-.214.29-.122.448l1.478 2.518c.115.196.047.447-.153.56l-.731.416c-.2.113-.454.046-.57-.15l-2.084-3.553 2.669-1.517c2.611-1.313 5.517-2.084 8.548-2.2 1.05-.04 1.678-1.165 1.154-2.059l-1.292-2.201zm-.095-2.266c.329.561.21 1.257-.245 1.686l-1.362-2.32c.597-.173 1.272.064 1.607.634zm3.26-1.458l-.862.49c-.16.09-.364.037-.456-.12-.092-.157-.037-.358.122-.448l.863-.49c.16-.09.363-.037.455.12.092.157.037.357-.122.448zm-3.71-1.87l.211-.772c.048-.175.23-.279.408-.232.178.047.284.227.236.402l-.21.772c-.048.175-.23.28-.409.232-.177-.047-.283-.227-.235-.402h0zm4.36 5.372c-.04.147-.174.243-.321.243-.06 0-.018.007-.872-.218-.177-.047-.283-.227-.235-.401.047-.175.23-.28.408-.232l.785.207c.178.046.283.226.236.401z"/>
    </g>
</svg>
