<svg xmlns="http://www.w3.org/2000/svg" width="70" height="69" viewBox="0 0 70 69">
    <g fill="none">
        <path fill="#FFDFBA" d="M41.526 55.753v5.185c0 .58-.47 1.05-1.05 1.05H2.128c-.58 0-1.05-.47-1.05-1.05v-5.185c0-5.416 4.43-9.711 9.846-9.764 1.803-.019 3.42-.911 4.408-2.318l-.008-.008c1.088-1.548.98-2.944.982-4.004l.02-.048c-4.708-1.952-8.02-6.593-8.023-12.005v-.428c-1.885 0-3.282-1.495-3.28-3.224l.009-12.8c0-1.958 1.589-3.545 3.547-3.544 1.592-3.972 5.441-6.563 9.704-6.56l14.127.01c.734.002 1.242.737.98 1.424l-.9 2.372c-.216.574.102 1.21.69 1.382l.728.211c2.18.633 3.823 2.62 3.823 5.061l-.007 12.252c0 1.887-1.53 3.416-3.418 3.416v.428c-.004 5.424-3.328 10.07-8.05 12.015v.001l.017.037c0 1.012-.119 2.438.98 4.006.959 1.367 2.583 2.305 4.426 2.324 5.416.053 9.847 4.348 9.847 9.764z"/>
        <path fill="#D6F4FC" d="M41.526 55.753v5.185c0 .58-.47 1.05-1.05 1.05H2.128c-.58 0-1.05-.47-1.05-1.05v-5.185c0-5.416 4.43-9.711 9.846-9.764 1.791-.019 3.414-.9 4.409-2.32 3.552 3.947 4.215 4.683 5.187 5.765.418.464 1.146.464 1.563 0l5.18-5.756c.952 1.358 2.58 2.292 4.416 2.311 5.416.053 9.847 4.348 9.847 9.764z"/>
        <path fill="#BDEFFC" d="M28.903 48.626c5.198.237 9.34 4.527 9.34 9.783v3.58h2.233c.58 0 1.05-.47 1.05-1.05v-5.177c0-5.418-4.432-9.717-9.85-9.773-.74-.008-1.447-.163-2.09-.438-.016.034-.675 3.038-.683 3.075z"/>
        <path fill="#E8F8FC" d="M29.586 45.55c-.016.035-1.313 5.932-1.304 5.894-.171.776-1.153 1.026-1.674.426-3.448-3.97-2.978-3.453-3.327-3.768l3.982-4.425c.577.825 1.387 1.472 2.323 1.874zM15.333 43.669l3.895 4.328-3.23 3.83c-.517.611-1.511.366-1.684-.416-.008-.038-1.28-5.826-1.296-5.86.936-.402 1.737-1.058 2.315-1.882z"/>
        <path fill="#42434D" d="M37.73 11.51l-.006 12.252c0 1.887-1.53 3.416-3.418 3.416l.005-8.094c.003-3.481-2.817-6.305-6.298-6.308l-13.396-.009c-3.481-.002-6.306 2.818-6.309 6.3l-.005 8.11c-1.885 0-3.282-1.494-3.28-3.223l.009-12.8c0-1.958 1.589-3.545 3.547-3.544 1.592-3.972 5.441-6.563 9.704-6.56l14.126.01c.735.001 1.242.737.982 1.424l-.9 2.372c-.217.573.1 1.21.69 1.381l.727.212c2.18.633 3.823 2.62 3.823 5.061z"/>
        <path fill="#FFEBD2" d="M28.013 12.776c3.481.003 6.3 2.827 6.298 6.308l-.005 8.522c-.004 5.424-3.328 10.07-8.05 12.015v.001c-8.545 3.524-17.949-2.78-17.953-12.016l.005-8.539c.003-3.482 2.828-6.302 6.31-6.3l13.395.01z"/>
        <path fill="#FFD6A6" d="M26.44 41.82c-3.235 1.354-6.79 1.459-10.277 0 .178-.74.148-1.218.148-2.157l.02-.048c3.163 1.312 6.773 1.315 9.942 0l.02.048c0 .94-.03 1.418.148 2.157z"/>
        <path fill="#FFF3E4" d="M18.358 35.993c2.138 1.338.452 4.617-1.888 3.678-4.811-1.93-8.17-6.62-8.17-12.073v-8.523c0-1.325.409-2.554 1.106-3.568.875-1.271 2.844-.641 2.834.902v8.562c0 4.795 2.52 8.772 6.118 11.022z"/>
        <path fill="#4D4E59" d="M33.39 2.484c-.93 2.455-.917 2.398-.94 2.514L22.222 4.99c-3.97-.003-7.581 2.245-9.345 5.763-.22.441-.621.772-1.104.875-1.6.341-2.8 1.764-2.801 3.466l-.002 1.163c-.423.845-.66 1.8-.662 2.81l-.003 4.926c-.001 2.128-3.284 2.269-3.282-.04l.009-12.799C5.033 9.196 6.62 7.61 8.579 7.61c1.592-3.972 5.442-6.563 9.704-6.56l14.127.01c.734.002 1.242.737.98 1.424z"/>
        <path fill="#F1FAFC" d="M15.416 49.184l.581 2.641c-.516.613-1.51.368-1.682-.414-.505-2.293-1.286-5.837-1.297-5.86.936-.402 1.737-1.058 2.315-1.882l1.122 1.247c-.964 1.2-1.373 2.757-1.04 4.268z"/>
        <path fill="#E8F8FC" d="M13.7 48.626c-5.197.237-9.34 4.527-9.34 9.783v3.58H2.128c-.58 0-1.05-.47-1.05-1.05v-5.177c0-5.418 4.432-9.717 9.85-9.773.74-.008 1.447-.163 2.09-.438.016.034.674 3.038.683 3.075z"/>
        <path fill="#000" d="M31.723 44.946c-1.547-.001-2.95-.79-3.753-2.11-.302-.496-.948-.654-1.444-.352-.495.301-.653.947-.352 1.443.559.919 1.316 1.66 2.196 2.191l-1.092 4.941-2.623-3.024c.488-.56.35-1.199-.048-1.545-.437-.381-1.1-.336-1.482.102l-1.849 2.123-4.65-5.173c.397-.76.637-1.592.707-2.46 8.997 2.636 18-4.087 18.024-13.445l.005-8.553c.003-4.064-3.284-7.356-7.349-7.359l-13.395-.009c-4.085 0-7.357 3.301-7.36 7.35l-.004 6.813c-.702-.364-1.182-1.086-1.181-1.925l.009-12.8c0-1.375 1.12-2.493 2.495-2.493.443 0 .822-.272.977-.66 1.413-3.525 4.835-5.9 8.728-5.9l14.126.01-1.302 3.436c-.217.572.1 1.21.689 1.381l1.82.53c1.74.505 3.059 2.099 3.066 4.05l-.009 12.467c0 .58.47 1.05 1.05 1.051.583 0 1.051-.472 1.052-1.05l.008-12.515c-.01-2.764-1.893-5.24-4.58-6.022l-.728-.211 1.438-3.794c.26-.687-.247-1.423-.981-1.423L18.283 0C13.774-.001 9.738 2.617 7.867 6.614c-2.198.343-3.885 2.247-3.887 4.54l-.008 12.798c-.002 2.041 1.426 3.71 3.29 4.157.192 5.414 3.437 10.004 7.993 12.18v.267c-.002 2.421-1.965 4.376-4.39 4.376C5.192 44.83.015 49.555.01 55.768l-.004 6.206c0 .58.47 1.051 1.05 1.052.582 0 1.05-.472 1.051-1.05l.004-6.207c.004-4.827 3.91-8.736 8.743-8.736.365.006.886-.04 1.379-.145l1.461 6.654c.186.844 1.255 1.113 1.82.464l3.783-4.35.941 1.047-.004 6.295c0 .58.47 1.05 1.05 1.051.582 0 1.05-.472 1.051-1.05l.004-6.305.923-1.06 3.798 4.38c.565.652 1.633.38 1.82-.462l1.47-6.652c.445.095.904.147 1.372.147 4.832.003 8.74 3.916 8.737 8.749l-.004 6.206c0 .58.47 1.051 1.05 1.051.582 0 1.05-.471 1.051-1.05l.004-6.206c.005-5.993-4.842-10.847-10.837-10.851zM9.353 27.583l.006-8.516c.002-2.895 2.358-5.25 5.253-5.25l13.4.01c2.903.002 5.251 2.352 5.249 5.256l-.006 8.566c-.027 6.576-5.354 11.9-11.959 11.9-6.585-.005-11.942-5.325-11.942-11.966zM15.3 51.05l-1.086-4.944c.4-.241.776-.529 1.123-.858l2.545 2.832-2.582 2.97z"/>
        <g transform="matrix(-1 0 0 1 69.92 21.28)">
            <path fill="#E2E0E0" d="M17.51 1.46c-8.864 0-16.05 7.186-16.05 16.05 0 8.865 7.186 16.052 16.05 16.052 3.111 0 6.016-.886 8.476-2.417v-.001c2.089-1.301 3.856-3.069 5.158-5.157v-.001c1.532-2.46 2.418-5.365 2.418-8.476 0-8.864-7.187-16.05-16.052-16.05zm0 26.265c-5.641 0-10.214-4.573-10.214-10.215 0-5.641 4.573-10.214 10.214-10.214 5.642 0 10.215 4.573 10.215 10.214 0 5.642-4.573 10.215-10.215 10.215z"/>
            <circle cx="17.51" cy="17.51" r="10.214" fill="#9AF9FF"/>
            <path fill="#CECCCC" d="M17.51 1.46c-.491 0-.978.021-1.459.065 8.18.737 14.592 7.612 14.592 15.985 0 3.111-.885 6.016-2.417 8.476-1.302 2.09-3.07 3.857-5.158 5.158-2.071 1.29-4.457 2.121-7.016 2.352.48.044.967.066 1.458.066 3.111 0 6.016-.886 8.476-2.417v-.001c2.089-1.301 3.856-3.069 5.158-5.157v-.001c1.532-2.46 2.418-5.365 2.418-8.476 0-8.864-7.187-16.05-16.052-16.05z"/>
            <path fill="#F8E9D2" d="M44.166 44.166c-.712.714-1.645 1.07-2.579 1.07-.934 0-1.867-.356-2.579-1.07L25.986 31.145v-.001c2.089-1.301 3.856-3.069 5.158-5.157v-.001l13.022 13.022c1.426 1.425 1.426 3.734 0 5.158z"/>
            <path fill="#E4D5BE" d="M44.166 44.166c-.712.714-1.645 1.07-2.579 1.07-.63 0-1.262-.163-1.824-.49.27-.155.525-.349.755-.58 1.426-1.424 1.426-3.733 0-5.158L29.591 28.08c.572-.653 1.092-1.353 1.553-2.093v-.001l13.022 13.022c1.426 1.425 1.426 3.734 0 5.158z"/>
            <path fill="#86EFFD" d="M17.51 7.296c-.622 0-1.232.056-1.824.162 4.771.86 8.39 5.034 8.39 10.052 0 5.02-3.619 9.193-8.39 10.053.592.106 1.202.162 1.824.162 5.642 0 10.215-4.573 10.215-10.215 0-5.641-4.573-10.214-10.215-10.214z"/>
            <path fill="#000" d="M45.198 37.976L32.97 25.746c1.339-2.506 2.05-5.319 2.05-8.236 0-4.607-1.774-8.957-4.997-12.249C26.805 1.975 22.503.108 17.911.005 17.778.002 17.645 0 17.51 0 7.854 0 0 7.855 0 17.51c0 9.656 7.855 17.51 17.51 17.51.133 0 .268-.001.4-.004 2.777-.062 5.448-.77 7.837-2.046l12.228 12.227c.964.966 2.247 1.497 3.612 1.497 1.365 0 2.648-.531 3.61-1.496.966-.964 1.497-2.247 1.497-3.61 0-1.365-.53-2.647-1.496-3.612zm-27.354-5.878c-.11.003-.222.004-.334.004-8.046 0-14.592-6.545-14.592-14.592 0-8.046 6.546-14.592 14.592-14.592.112 0 .224.002.335.005 7.862.176 14.257 6.72 14.257 14.587 0 7.869-6.396 14.413-14.258 14.588zm25.29 11.037c-.413.414-.962.641-1.547.641-.584 0-1.134-.227-1.547-.641L28.248 31.344c.622-.484 1.215-1.012 1.775-1.584.472-.482.912-.987 1.32-1.512L43.135 40.04c.413.414.641.963.641 1.547s-.228 1.134-.642 1.548z"/>
            <path fill="#000" d="M17.51 29.184c-6.436 0-11.673-5.237-11.673-11.674 0-6.436 5.237-11.673 11.673-11.673 6.437 0 11.674 5.237 11.674 11.673 0 6.437-5.237 11.674-11.674 11.674zm0-20.429c-4.827 0-8.755 3.928-8.755 8.755 0 4.828 3.928 8.756 8.755 8.756 4.828 0 8.756-3.928 8.756-8.756 0-4.827-3.928-8.755-8.756-8.755z"/>
        </g>
    </g>
</svg>
