<svg xmlns="http://www.w3.org/2000/svg" width="32" height="33" viewBox="0 0 32 33">
    <g fill="none" fill-rule="evenodd">
        <path fill="#F29100" d="M21.46 15.64c.52-3.348 3.504-4.139 3.5-8.27C24.956 3.09 21.666.599 18.463.644 15.26.598 11.97 3.09 11.964 7.371c-.005 4.13 2.982 4.92 3.5 8.268.053-.007.106-.009.16-.009H21.3c.054 0 .107.002.16.01z" transform="matrix(-1 0 0 1 32 0)"/>
        <path fill="#00014F" fill-rule="nonzero" d="M18.39 9.732c-.304 0-.485-.158-.543-.474-.034-.15-.059-.253-.076-.313-.016-.059-.04-.118-.07-.177-.03-.06-.077-.125-.14-.197-.062-.071-.145-.154-.249-.248-.375-.335-.635-.573-.78-.714-.144-.142-.27-.31-.374-.504-.105-.195-.158-.422-.158-.68 0-.329.092-.633.277-.912.184-.28.445-.502.784-.664.338-.163.728-.244 1.17-.244.475 0 .891.097 1.248.292.356.194.628.44.814.736.185.297.278.59.278.879 0 .14-.058.27-.176.39-.117.12-.26.18-.432.18-.29 0-.486-.172-.59-.516-.109-.328-.243-.577-.402-.746-.158-.168-.405-.253-.74-.253-.287 0-.52.084-.702.251-.181.167-.272.373-.272.616 0 .125.03.24.09.347.059.106.132.203.219.29.087.086.228.215.423.385.222.195.399.363.53.504.13.141.236.306.315.493.08.187.12.408.12.664 0 .203-.055.357-.163.46-.108.104-.242.155-.4.155zm-.05 1.78c-.18 0-.338-.061-.475-.183-.137-.122-.206-.289-.206-.502 0-.191.066-.352.197-.483s.293-.196.485-.196c.195 0 .36.065.493.196.134.13.201.292.201.483 0 .216-.069.384-.208.504-.138.12-.3.18-.486.18z" transform="matrix(-1 0 0 1 32 0)"/>
        <path fill="#F3EFF0" d="M15.624 18.517H21.346c.769-.024 1.389-.665 1.389-1.443 0-.741-.56-1.355-1.275-1.435-.052-.007-.105-.009-.159-.009h-5.677c-.054 0-.107.002-.16.01-.713.08-1.274.693-1.274 1.434 0 .778.62 1.419 1.389 1.443h.045z" transform="matrix(-1 0 0 1 32 0)"/>
        <path fill="#CDC0C4" d="M19.875 21.482c.81 0 1.471-.667 1.471-1.483v-1.482H15.58v1.482c0 .816.661 1.483 1.47 1.483h2.826z" transform="matrix(-1 0 0 1 32 0)"/>
        <path fill="#FFDCD5" d="M19.52 25.958c-.275-.503-.804-.843-1.408-.843h-3.237c-.477 0-.544-.08-.842-.363-2.387-2.263-4.334-2.152-6.72-1.203-.514.204-.581.2-1.051.222H5.023v6.09h1.855c.252 0 .228.013.599.113l6.16 1.659c2.166.592 3.034 1.135 5.091-.248l7.592-5.445c.694-.5.953-1.419.505-2.151-.449-.73-1.376-.9-2.134-.506l-5.17 2.675z" transform="matrix(-1 0 0 1 32 0)"/>
        <path fill="#F29100" d="M5.023 29.861V23.671c0-.547-.443-.993-.983-.993H1.659c-.541 0-.984.446-.984.993v6.29c0 .545.443.99.984.99h2.38c.541 0 .984-.445.984-.99v-.1z" transform="matrix(-1 0 0 1 32 0)"/>
        <g fill="#00014F" fill-rule="nonzero">
            <path d="M24.4 22.711l-4.697 2.43c-.407-.413-.97-.669-1.591-.669h-3.237c-.144 0-.196-.009-.212-.012-.03-.02-.103-.09-.162-.146l-.03-.03c-2.635-2.498-4.861-2.34-7.393-1.333-.396.157-.403.158-.796.176h-.713c-.223-.635-.824-1.091-1.53-1.091H1.66c-.894 0-1.622.733-1.622 1.635v6.29c0 .9.728 1.633 1.622 1.633h2.38c.706 0 1.307-.456 1.53-1.09h1.31c.148.012.292.043.433.09l6.158 1.66c.27.073.517.145.757.215.795.233 1.463.429 2.16.429.788 0 1.611-.25 2.695-.978l.016-.011 7.593-5.446c.998-.717 1.289-2.012.676-3.012-.605-.986-1.881-1.304-2.967-.74zm-20.015 7.25c0 .189-.158.348-.345.348H1.659c-.188 0-.346-.16-.346-.348v-6.29c0-.19.158-.35.346-.35h2.38c.188 0 .346.16.346.35v6.29zm21.565-4.545l-7.584 5.44c-1.543 1.035-2.2.843-3.784.38-.244-.072-.498-.146-.78-.224l-6.16-1.659c-.248-.077-.502-.122-.764-.134H5.661v-4.806l.679-.003c.485-.022.636-.037 1.206-.264 2.195-.872 3.888-.976 6.05 1.075l.03.029c.373.353.603.507 1.25.507h3.236c.533 0 .967.438.967.975 0 .537-.434.973-.967.973h-5.247c-.352 0-.638.288-.638.643 0 .354.286.642.638.642h5.247c1.237 0 2.243-1.013 2.243-2.258 0-.157-.016-.311-.047-.46l4.675-2.418c.427-.221 1.01-.199 1.299.272.255.417.112.972-.332 1.29z" transform="matrix(-1 0 0 1 32 0)"/>
            <path d="M14.72 15.197c-.69.339-1.168 1.053-1.168 1.877 0 .909.581 1.683 1.389 1.968V20c0 1.172.945 2.125 2.108 2.125h2.825c1.164 0 2.11-.953 2.11-2.125v-.957c.808-.285 1.389-1.06 1.389-1.968 0-.824-.477-1.538-1.168-1.877.28-1.045.846-1.824 1.441-2.64.916-1.256 1.955-2.68 1.952-5.186 0-.224-.009-.454-.027-.683-.028-.354-.335-.617-.686-.59-.352.028-.614.338-.586.692.016.195.024.39.024.581.001 2.086-.827 3.222-1.705 4.425-.666.913-1.351 1.854-1.678 3.191h-4.956c-.326-1.337-1.012-2.278-1.678-3.19-.878-1.203-1.707-2.34-1.704-4.426.003-2.224.949-3.628 1.742-4.415 1.092-1.083 2.588-1.692 4.11-1.67h.018c1.239-.02 2.482.387 3.497 1.143.283.21.682.15.892-.135.21-.285.15-.687-.134-.898C21.492.476 19.977-.02 18.462 0c-1.855-.023-3.681.719-5.013 2.04-1.386 1.374-2.12 3.217-2.123 5.329-.003 2.508 1.036 3.932 1.952 5.188.596.816 1.162 1.594 1.442 2.639zm5.988 4.802c0 .463-.374.84-.833.84h-2.826c-.46 0-.832-.377-.832-.84v-.84h4.491V20zm-5.084-3.727H21.3c.439 0 .796.36.796.802 0 .441-.357.8-.796.8h-5.677c-.439 0-.796-.359-.796-.8 0-.442.357-.802.796-.802zM31.22 7.366h-2.59c-.353 0-.639.287-.639.642 0 .355.286.643.638.643h2.59c.353 0 .639-.288.639-.643 0-.355-.286-.642-.638-.642zM27.557 3.227c.123 0 .246-.035.355-.109l2.15-1.453c.293-.198.37-.597.174-.892C30.04.48 29.644.4 29.351.598l-2.15 1.453c-.292.198-.37.597-.174.892.123.184.325.284.53.284zM30.062 14.352l-2.15-1.454c-.292-.197-.688-.119-.885.176-.196.294-.118.693.174.891l2.15 1.454c.11.073.233.109.355.109.205 0 .407-.1.53-.285.197-.294.119-.694-.174-.891zM5.705 8.65h2.59c.351 0 .637-.287.637-.642 0-.355-.286-.642-.638-.642H5.705c-.352 0-.638.287-.638.642 0 .355.286.643.638.643zM6.863 1.665l2.15 1.453c.109.074.232.11.354.11.206 0 .408-.1.53-.285.197-.295.119-.694-.173-.892L7.574.598C7.28.4 6.885.478 6.689.773c-.197.295-.119.694.174.892zM9.013 12.898l-2.15 1.454c-.293.197-.37.597-.174.891.123.185.324.285.53.285.122 0 .246-.036.355-.11l2.15-1.453c.292-.198.37-.597.174-.891-.197-.295-.593-.373-.885-.176z" transform="matrix(-1 0 0 1 32 0)"/>
            <path d="M23.694 4.448c.124.126.287.188.45.188.163 0 .326-.063.451-.188.25-.251.248-.659 0-.91-.25-.25-.654-.25-.903 0s-.249.658 0 .909l.002.001z" transform="matrix(-1 0 0 1 32 0)"/>
        </g>
    </g>
</svg>
