<svg xmlns="http://www.w3.org/2000/svg" width="76" height="33" viewBox="0 0 76 33">
    <g fill="none">
        <path fill="#FFDFBA" d="M21.249 28.529v2.653c0 .297-.24.537-.538.537H1.09c-.297 0-.538-.24-.538-.537v-2.653c0-2.772 2.268-4.97 5.039-4.996.922-.01 1.75-.467 2.255-1.187l-.004-.004c.557-.792.502-1.506.503-2.049l.01-.024c-2.41-.999-4.104-3.374-4.105-6.143v-.22c-.965 0-1.68-.764-1.68-1.649l.006-6.55c0-1.001.813-1.814 1.815-1.813C5.205 1.862 7.174.536 9.355.537l7.229.006c.375 0 .636.377.502.728l-.46 1.214c-.111.293.051.62.352.707l.373.108c1.115.324 1.956 1.34 1.956 2.59l-.004 6.269c0 .966-.783 1.748-1.749 1.748v.219c-.002 2.775-1.703 5.153-4.119 6.148l.009.02c0 .517-.061 1.247.502 2.05.49.699 1.321 1.178 2.264 1.189 2.772.026 5.039 2.224 5.039 4.996z"/>
        <path fill="#D6F4FC" d="M21.249 28.529v2.653c0 .297-.24.537-.538.537H1.09c-.297 0-.538-.24-.538-.537v-2.653c0-2.772 2.268-4.97 5.039-4.996.916-.01 1.747-.461 2.256-1.188l2.654 2.95c.214.237.586.237.8 0l2.65-2.945c.487.695 1.32 1.173 2.26 1.183 2.772.026 5.039 2.224 5.039 4.996z"/>
        <path fill="#BDEFFC" d="M14.79 24.882c2.66.12 4.779 2.316 4.779 5.006v1.831h1.142c.297 0 .538-.24.538-.537v-2.649c0-2.772-2.268-4.972-5.04-5-.38-.005-.741-.084-1.07-.225-.008.018-.345 1.555-.35 1.574z"/>
        <path fill="#E8F8FC" d="M15.139 23.308c-.008.018-.672 3.035-.667 3.016-.088.397-.59.525-.857.218-1.764-2.032-1.524-1.767-1.702-1.928l2.037-2.264c.296.422.71.752 1.189.958zM7.846 22.345l1.993 2.215-1.653 1.96c-.265.312-.773.187-.861-.213-.005-.02-.656-2.981-.664-2.999.48-.206.89-.54 1.185-.963z"/>
        <path fill="#42434D" d="M19.307 5.89l-.004 6.269c0 .966-.783 1.748-1.749 1.748l.003-4.142c.001-1.781-1.442-3.226-3.223-3.227L7.48 6.533C5.698 6.532 4.253 7.975 4.25 9.756l-.002 4.15c-.965 0-1.68-.764-1.68-1.649l.006-6.55c0-1.001.813-1.814 1.815-1.813C5.205 1.861 7.174.536 9.355.537l7.229.006c.376 0 .635.376.502.728l-.46 1.214c-.112.293.05.619.352.707l.373.108c1.115.324 1.956 1.34 1.956 2.59z"/>
        <path fill="#FFEBD2" d="M14.334 6.538c1.781.001 3.224 1.446 3.223 3.227 0 1.523-.003 4.36-.003 4.36-.002 2.776-1.703 5.154-4.119 6.149-4.372 1.804-9.184-1.422-9.186-6.148l.002-4.37c.002-1.781 1.447-3.224 3.229-3.223l6.854.005z"/>
        <path fill="#FFD6A6" d="M13.53 21.399c-1.656.693-3.475.747-5.26 0 .092-.378.076-.623.076-1.104l.01-.024c1.619.671 3.466.673 5.088 0l.01.024c0 .481-.016.726.076 1.104z"/>
        <path fill="#FFF3E4" d="M9.394 18.418c1.094.684.231 2.362-.966 1.882-2.462-.989-4.18-3.388-4.18-6.178V9.76c0-.677.208-1.306.565-1.825.448-.65 1.455-.328 1.45.461v4.382c0 2.453 1.29 4.488 3.13 5.64z"/>
        <path fill="#4D4E59" d="M17.086 1.271c-.477 1.256-.47 1.227-.481 1.286l-5.234-.004c-2.031 0-3.88 1.149-4.782 2.95-.113.225-.318.394-.565.447-.819.175-1.433.903-1.433 1.774l-.001.594c-.216.433-.338.922-.339 1.438l-.001 2.521c-.001 1.089-1.68 1.161-1.68-.02l.005-6.55c0-1.001.813-1.814 1.815-1.813C5.205 1.862 7.174.536 9.355.537l7.229.006c.375 0 .636.377.502.728z"/>
        <path fill="#F1FAFC" d="M7.888 25.167l.298 1.352c-.264.313-.773.188-.861-.212-.258-1.174-.658-2.987-.664-2.999.48-.206.89-.54 1.185-.963l.574.638c-.494.615-.703 1.411-.532 2.184z"/>
        <path fill="#E8F8FC" d="M7.01 24.882c-2.66.12-4.779 2.316-4.779 5.006v1.831H1.09c-.297 0-.538-.24-.538-.537v-2.649c0-2.772 2.268-4.972 5.04-5 .38-.005.741-.084 1.07-.225.008.018.345 1.555.35 1.574z"/>
        <path fill="#000" d="M16.233 22.999c-.792 0-1.51-.405-1.921-1.08-.154-.254-.485-.335-.739-.18-.253.154-.334.485-.18.738.286.47.673.85 1.124 1.122l-.559 2.528-1.342-1.548c.25-.286.18-.613-.024-.79-.224-.195-.564-.172-.759.052l-.946 1.086-2.38-2.647c.203-.388.326-.814.362-1.258 4.604 1.349 9.21-2.092 9.223-6.88l.003-4.377c.001-2.08-1.68-3.764-3.76-3.765L7.48 5.995c-2.09 0-3.765 1.69-3.766 3.76l-.002 3.487c-.36-.186-.605-.556-.605-.985l.005-6.55c0-.703.573-1.275 1.277-1.275.227 0 .42-.14.5-.338.723-1.803 2.474-3.019 4.466-3.019l7.228.005-.666 1.758c-.111.293.051.62.352.707l.932.27c.89.26 1.565 1.075 1.568 2.074l-.004 6.379c0 .297.24.537.537.538.298 0 .538-.242.538-.537l.005-6.404c-.005-1.415-.97-2.682-2.344-3.082l-.373-.108.737-1.941c.133-.352-.127-.728-.503-.728L9.355 0c-2.307 0-4.372 1.339-5.33 3.385-1.124.175-1.987 1.15-1.988 2.322l-.005 6.55c0 1.044.73 1.898 1.684 2.126.098 2.77 1.759 5.12 4.09 6.232v.137c-.001 1.24-1.006 2.24-2.246 2.24C2.657 22.94.007 25.356.005 28.535l-.002 3.176c0 .297.24.538.537.538.298 0 .538-.241.538-.537l.002-3.176c.002-2.47 2.001-4.47 4.474-4.47.186.003.453-.02.706-.075l.747 3.405c.095.432.642.57.931.238l1.936-2.226.482.536-.002 3.22c0 .297.24.538.537.538.298 0 .538-.24.538-.537l.002-3.226.472-.542 1.943 2.24c.29.334.836.195.931-.235l.753-3.404c.227.048.462.075.702.075 2.473.001 4.473 2.004 4.47 4.476l-.001 3.176c0 .297.24.538.537.538.298 0 .538-.241.538-.537l.002-3.176c.002-3.066-2.478-5.55-5.545-5.552zM4.786 14.114l.003-4.357C4.79 8.275 5.996 7.07 7.477 7.07l6.856.005c1.486.001 2.688 1.204 2.687 2.69l-.003 4.383c-.015 3.365-2.74 6.089-6.12 6.089-3.37-.003-6.11-2.725-6.11-6.123zm3.042 12.009l-.555-2.53c.205-.124.397-.27.574-.44l1.303 1.45-1.322 1.52z"/>
        <g>
            <path fill="#FFDFBA" d="M21.235 28.543v2.638c0 .297-.24.538-.537.538H1.075c-.297 0-.537-.241-.537-.538v-2.638c0-2.756 2.225-5.041 4.98-5.011 1.56.015 2.815-1.239 2.815-2.778v-.46l.01-.024c-2.413-.999-4.11-3.376-4.11-6.15v-.21c-.957 0-1.68-.756-1.68-1.649V6.338c0-1.946.966-3.766 2.576-4.859l.79-.535c.3-.203.708-.06.815.285l.28.892c.094.304.43.459.723.334L11.705.762c.285-.121.613.022.718.313l.312.875c.094.265.376.412.648.338l3.276-.893c.341-.093.679.164.679.518v.747c0 .22.133.418.338.5l2.44.976c.3.12.424.476.27.761-.698 1.276-1.1 2.75-1.1 4.303v2.963c0 .965-.782 1.748-1.747 1.748v.21c0 2.773-1.697 5.15-4.109 6.149l.01.025v.459c0 1.541 1.258 2.793 2.815 2.778 2.755-.03 4.98 2.255 4.98 5.01z" transform="translate(54)"/>
            <path fill="#FFAA64" d="M21.235 28.543v2.638c0 .297-.24.538-.537.538H1.075c-.297 0-.537-.241-.537-.538v-2.638c0-2.756 2.225-5.041 4.98-5.012.406.005.793-.078 1.142-.23v.001c.735 1.674 2.399 2.76 4.226 2.76 1.828 0 3.492-1.086 4.227-2.76.35.151.736.234 1.142.23 2.755-.03 4.98 2.255 4.98 5.01z" transform="translate(54)"/>
            <path fill="#FFE773" d="M17.338 2.66c0 .22.134.418.338.5l2.44.975c.301.12.424.477.269.762-.696 1.276-1.099 2.75-1.099 4.304v2.962c0 .965-.782 1.748-1.747 1.748V9.76c0-1.782-1.444-3.226-3.225-3.226H7.459c-1.781 0-3.225 1.444-3.225 3.226v4.15c-.958 0-1.68-.756-1.68-1.648V6.338c0-1.946.965-3.766 2.575-4.859l.79-.535c.299-.202.708-.06.815.284l.28.893c.094.304.43.459.723.334L11.705.762c.285-.122.613.022.717.314l.313.875c.094.264.377.411.648.337l3.276-.893c.342-.093.679.164.679.519v.746z" transform="translate(54)"/>
            <path fill="#FFEBD2" d="M17.54 14.12c0 3.676-2.98 6.654-6.654 6.654-3.672 0-6.652-2.977-6.652-6.653V9.76c0-1.782 1.444-3.226 3.225-3.226h6.855c1.781 0 3.225 1.444 3.225 3.226v4.36z" transform="translate(54)"/>
            <path fill="#FFD6A6" d="M13.516 21.398c-1.656.693-3.475.747-5.26 0 .092-.378.077-.623.077-1.103l.01-.025c1.618.671 3.466.673 5.087 0l.01.025c0 .48-.015.725.076 1.103z" transform="translate(54)"/>
            <path fill="#FFF3E4" d="M9.38 18.417c1.094.684.231 2.362-.966 1.882-2.462-.988-4.18-3.388-4.18-6.178V9.76c0-.678.209-1.307.566-1.826.447-.65 1.455-.328 1.45.461v4.382c0 2.453 1.29 4.488 3.13 5.64z" transform="translate(54)"/>
            <path fill="#FFBD7B" d="M6.938 23.838c.37.61.035 1.405-.655 1.587-1.647.434-3.797 1.593-3.797 4.798v1.496h-1.41c-.298 0-.538-.241-.538-.538v-2.638c0-2.756 2.225-5.041 4.98-5.011.406.004.793-.078 1.142-.23.081.186.175.365.278.536z" transform="translate(54)"/>
            <path fill="#FAA157" d="M14.835 23.838c-.37.61-.035 1.405.655 1.587 1.647.434 3.796 1.593 3.796 4.798v1.496h1.412c.297 0 .537-.241.537-.538v-2.638c0-2.756-2.225-5.041-4.98-5.011-.406.004-.793-.078-1.142-.23-.082.186-.175.365-.278.536z" transform="translate(54)"/>
            <path fill="#FFEC8F" d="M7.737 2.455c.016-.007.028.015.014.025l-.606.41C5.535 3.983 4.57 5.803 4.57 7.75v.576c-.215.432-.336.92-.336 1.435v4.15c-.958 0-1.68-.756-1.68-1.649V6.338c0-1.946.965-3.766 2.575-4.859l.79-.535c.3-.203.708-.06.815.285l.28.892c.094.304.43.459.723.334z" transform="translate(54)"/>
            <path fill="#000" d="M21.773 28.543v3.176c0 .296-.24.537-.538.537-.297 0-.537-.24-.537-.537v-3.176c0-2.473-2.001-4.474-4.474-4.474-1.17 0-2.232-.596-2.84-1.594-.154-.254-.074-.585.18-.739.253-.155.584-.074.738.18.412.675 1.13 1.078 1.922 1.078 3.067 0 5.549 2.482 5.549 5.549zm-7.5-3.915c.19.227.162.566-.066.757-2.475 2.084-6.237 1.402-7.818-1.423-.27.07-.552.107-.84.107-2.478 0-4.474 2.006-4.474 4.474v3.175c0 .297-.24.538-.537.538-.297 0-.538-.24-.538-.538v-3.175c0-3.067 2.482-5.549 5.549-5.549 1.24 0 2.246-.999 2.246-2.24v-.142c-2.346-1.122-3.993-3.48-4.094-6.226-.965-.232-1.685-1.096-1.685-2.125V6.338c0-2.127 1.051-4.11 2.812-5.304L6.217.093c.298-.202.707-.06.815.284l.494 1.583L12.02.043c.284-.121.613.023.717.314l.504 1.413L17.196.69c.342-.092.68.166.68.52v1.45l3.021 1.209c.313.125.435.504.254.788-.868 1.36-1.327 2.93-1.327 4.543v3.061c0 .297-.24.538-.537.538-.297 0-.538-.24-.538-.538v-3.06c0-1.603.402-3.169 1.167-4.567l-2.778-1.11c-.204-.082-.338-.28-.338-.5v-1.11l-3.756 1.024c-.271.074-.553-.073-.648-.338l-.48-1.344-4.515 1.927c-.293.125-.629-.032-.724-.335l-.456-1.46-.79.536c-1.465.994-2.34 2.644-2.34 4.414v5.923c0 .427.246.798.605.984V9.76c0-2.075 1.688-3.763 3.763-3.763h6.855c2.075 0 3.763 1.688 3.763 3.763v4.417c-.037 4.745-4.624 8.195-9.218 6.842-.084 1.061-.66 1.96-1.482 2.504 1.281 2.164 4.204 2.668 6.138 1.04.227-.191.566-.162.758.065zm-3.387-4.392c3.372 0 6.116-2.744 6.116-6.115V9.76c0-1.483-1.206-2.688-2.688-2.688H7.459c-1.482 0-2.688 1.206-2.688 2.688v4.36c0 3.372 2.744 6.116 6.115 6.116z" transform="translate(54)"/>
        </g>
        <g fill="#1E201D">
            <path d="M10.602.503c-.214-.222-.571-.222-.793 0-.214.215-.214.572 0 .786l4.024 4.024H.556c-.31 0-.556.246-.556.556 0 .309.246.563.555.563h13.277L9.81 10.448c-.214.222-.214.58 0 .793.222.223.58.223.793 0l4.976-4.975c.223-.215.223-.572 0-.786L10.602.503z" transform="translate(30 11)"/>
        </g>
    </g>
</svg>
