<svg xmlns="http://www.w3.org/2000/svg" width="32" height="33" viewBox="0 0 32 33">
    <g fill="none" fill-rule="evenodd">
        <g>
            <path fill="#FFDCD5" d="M19.52 4.47c-.275-.503-.804-.843-1.408-.843h-3.237c-.477 0-.544-.08-.842-.363C11.646 1 9.699 1.111 7.313 2.06c-.514.204-.581.2-1.051.222H5.023v6.09h1.855c.252 0 .228.013.599.113l6.16 1.66c2.166.591 3.034 1.134 5.091-.248L26.32 4.45c.694-.499.953-1.418.505-2.15-.449-.73-1.376-.9-2.134-.507l-5.17 2.676z" transform="matrix(-1 0 0 1 32 21.488)"/>
            <path fill="#00ACEA" fill-rule="nonzero" d="M5.023 8.373V2.183c0-.547-.443-.993-.983-.993H1.659c-.541 0-.984.446-.984.992v6.29c0 .545.443.992.984.992h2.38c.541 0 .984-.447.984-.991v-.1z" transform="matrix(-1 0 0 1 32 21.488)"/>
            <path fill="#00014F" fill-rule="nonzero" d="M24.4 1.223l-4.697 2.43c-.407-.413-.97-.669-1.591-.669h-3.237c-.144 0-.196-.009-.212-.013-.03-.02-.103-.09-.162-.145l-.03-.03C11.835.298 9.61.456 7.077 1.463c-.396.157-.403.157-.796.175l-.713.001C5.346 1.004 4.745.547 4.039.547H1.66C.765.547.037 1.281.037 2.182v6.29c0 .901.728 1.634 1.622 1.634h2.38c.706 0 1.307-.456 1.53-1.09h1.31c.148.012.292.042.433.09l6.158 1.659c.27.073.517.146.757.216.795.233 1.463.428 2.16.428.788 0 1.611-.25 2.695-.978l.016-.01 7.593-5.447c.998-.717 1.289-2.011.676-3.011-.605-.986-1.881-1.304-2.967-.74zM4.385 8.473c0 .189-.158.348-.345.348H1.659c-.188 0-.346-.16-.346-.348v-6.29c0-.19.158-.35.346-.35h2.38c.188 0 .346.16.346.35v6.29zM25.95 3.928l-7.584 5.44c-1.543 1.035-2.2.842-3.784.379-.244-.072-.498-.146-.78-.223l-6.16-1.659c-.248-.077-.502-.122-.764-.135H5.661V2.925l.679-.003c.485-.022.636-.037 1.206-.264 2.195-.872 3.888-.976 6.05 1.074l.03.03c.373.352.603.507 1.25.507h3.236c.533 0 .967.437.967.975 0 .536-.434.973-.967.973h-5.247c-.352 0-.638.287-.638.642 0 .355.286.643.638.643h5.247c1.237 0 2.243-1.013 2.243-2.258 0-.158-.016-.311-.047-.46l4.675-2.419c.427-.22 1.01-.198 1.299.273.255.416.112.971-.332 1.29z" transform="matrix(-1 0 0 1 32 21.488)"/>
        </g>
        <g>
            <path fill="#05BAEE" d="M14.856 15.37c-2.072 6.052-7.625 6.322-10.662 4.503-3.038-1.818-6.568-5.502-2.018-12.094.278 1.355 1.176 2.032 2.695 2.032 1.178-.26 1.868-.938 2.07-2.032.201-1.095.511-2.874.93-5.339l4.404 4.299c1.72 1.64 2.667 3.16 2.839 4.564.151.94.256 2.101-.258 4.067z" opacity=".3" transform="translate(5.333 .767)"/>
            <path fill="#00014F" fill-rule="nonzero" d="M2.72 1.37c.25 0 .453-.205.453-.457V.457C3.173.204 2.97 0 2.72 0s-.453.204-.453.457v.456c0 .252.203.457.453.457zM2.72 4.566c.25 0 .453-.204.453-.456v-.457c0-.252-.203-.457-.453-.457s-.453.205-.453.457v.457c0 .252.203.456.453.456zM4.08 2.74h.453c.25 0 .454-.205.454-.457s-.203-.456-.454-.456H4.08c-.25 0-.453.204-.453.456s.203.457.453.457zM.907 2.74h.453c.25 0 .453-.205.453-.457s-.203-.456-.453-.456H.907c-.25 0-.454.204-.454.456s.203.457.454.457z" transform="translate(5.333 .767)"/>
            <path fill="#05BAEE" d="M12.013 17.146c-1.233 3.751-4.537 3.919-6.344 2.791-1.808-1.127-3.908-3.41-1.2-7.496.164.84.699 1.26 1.603 1.26.7-.162 1.11-.581 1.23-1.26.12-.678.305-1.781.554-3.308l2.62 2.664c1.025 1.016 1.588 1.959 1.69 2.828.09.583.153 1.303-.153 2.521z" transform="translate(5.333 .767)"/>
            <path stroke="#00014F" stroke-linecap="round" stroke-linejoin="round" stroke-width=".916" d="M14.568 15.224c-2.095 6.056-7.71 6.327-10.781 4.507-3.071-1.82-5.6-6.032-2.04-12.105.28 1.356 1.19 2.034 2.725 2.034 1.19-.26 1.888-.939 2.092-2.034.204-1.096.518-2.877.94-5.343l4.454 4.302c1.74 1.64 2.697 3.164 2.87 4.568" transform="translate(5.333 .767)"/>
            <path stroke="#00014F" stroke-linecap="round" stroke-linejoin="round" stroke-width=".916" d="M12.08 17.282c-1.281 3.601-4.716 3.762-6.595 2.68-1.88-1.082-3.426-3.586-1.248-7.197.172.807.727 1.21 1.667 1.21.728-.155 1.155-.558 1.28-1.21.125-.65.316-1.71.575-3.176l2.725 2.558c1.064.975 1.65 1.88 1.756 2.715" transform="translate(5.333 .767)"/>
        </g>
    </g>
</svg>
