<svg xmlns="http://www.w3.org/2000/svg" width="32" height="33" viewBox="0 0 32 33">
    <g fill="none">
        <g opacity=".582">
            <path fill="#FFDFBA" d="M21.249 28.529v2.653c0 .297-.24.537-.538.537H1.09c-.297 0-.538-.24-.538-.537v-2.653c0-2.772 2.268-4.97 5.039-4.996.922-.01 1.75-.467 2.255-1.187l-.004-.004c.557-.792.502-1.506.503-2.049l.01-.024c-2.41-.999-4.104-3.374-4.105-6.143v-.22c-.965 0-1.68-.764-1.68-1.649l.006-6.55c0-1.001.813-1.814 1.815-1.813C5.205 1.862 7.174.536 9.355.537l7.229.006c.375 0 .636.377.502.728l-.46 1.214c-.111.293.051.62.352.707l.373.108c1.115.324 1.956 1.34 1.956 2.59l-.004 6.269c0 .966-.783 1.748-1.749 1.748v.219c-.002 2.775-1.703 5.153-4.119 6.148l.009.02c0 .517-.061 1.247.502 2.05.49.699 1.321 1.178 2.264 1.189 2.772.026 5.039 2.224 5.039 4.996z"/>
            <path fill="#D6F4FC" d="M21.249 28.529v2.653c0 .297-.24.537-.538.537H1.09c-.297 0-.538-.24-.538-.537v-2.653c0-2.772 2.268-4.97 5.039-4.996.916-.01 1.747-.461 2.256-1.188l2.654 2.95c.214.237.586.237.8 0l2.65-2.945c.487.695 1.32 1.173 2.26 1.183 2.772.026 5.039 2.224 5.039 4.996z"/>
            <path fill="#BDEFFC" d="M14.79 24.882c2.66.12 4.779 2.316 4.779 5.006v1.831h1.142c.297 0 .538-.24.538-.537v-2.649c0-2.772-2.268-4.972-5.04-5-.38-.005-.741-.084-1.07-.225-.008.018-.345 1.555-.35 1.574z"/>
            <path fill="#E8F8FC" d="M15.139 23.308c-.008.018-.672 3.035-.667 3.016-.088.397-.59.525-.857.218-1.764-2.032-1.524-1.767-1.702-1.928l2.037-2.264c.296.422.71.752 1.189.958zM7.846 22.345l1.993 2.215-1.653 1.96c-.265.312-.773.187-.861-.213-.005-.02-.656-2.981-.664-2.999.48-.206.89-.54 1.185-.963z"/>
            <path fill="#42434D" d="M19.307 5.89l-.004 6.269c0 .966-.783 1.748-1.749 1.748l.003-4.142c.001-1.781-1.442-3.226-3.223-3.227L7.48 6.533C5.698 6.532 4.253 7.975 4.25 9.756l-.002 4.15c-.965 0-1.68-.764-1.68-1.649l.006-6.55c0-1.001.813-1.814 1.815-1.813C5.205 1.861 7.174.536 9.355.537l7.229.006c.376 0 .635.376.502.728l-.46 1.214c-.112.293.05.619.352.707l.373.108c1.115.324 1.956 1.34 1.956 2.59z"/>
            <path fill="#FFEBD2" d="M14.334 6.538c1.781.001 3.224 1.446 3.223 3.227 0 1.523-.003 4.36-.003 4.36-.002 2.776-1.703 5.154-4.119 6.149-4.372 1.804-9.184-1.422-9.186-6.148l.002-4.37c.002-1.781 1.447-3.224 3.229-3.223l6.854.005z"/>
            <path fill="#FFD6A6" d="M13.53 21.399c-1.656.693-3.475.747-5.26 0 .092-.378.076-.623.076-1.104l.01-.024c1.619.671 3.466.673 5.088 0l.01.024c0 .481-.016.726.076 1.104z"/>
            <path fill="#FFF3E4" d="M9.394 18.418c1.094.684.231 2.362-.966 1.882-2.462-.989-4.18-3.388-4.18-6.178V9.76c0-.677.208-1.306.565-1.825.448-.65 1.455-.328 1.45.461v4.382c0 2.453 1.29 4.488 3.13 5.64z"/>
            <path fill="#4D4E59" d="M17.086 1.271c-.477 1.256-.47 1.227-.481 1.286l-5.234-.004c-2.031 0-3.88 1.149-4.782 2.95-.113.225-.318.394-.565.447-.819.175-1.433.903-1.433 1.774l-.001.594c-.216.433-.338.922-.339 1.438l-.001 2.521c-.001 1.089-1.68 1.161-1.68-.02l.005-6.55c0-1.001.813-1.814 1.815-1.813C5.205 1.862 7.174.536 9.355.537l7.229.006c.375 0 .636.377.502.728z"/>
            <path fill="#F1FAFC" d="M7.888 25.167l.298 1.352c-.264.313-.773.188-.861-.212-.258-1.174-.658-2.987-.664-2.999.48-.206.89-.54 1.185-.963l.574.638c-.494.615-.703 1.411-.532 2.184z"/>
            <path fill="#E8F8FC" d="M7.01 24.882c-2.66.12-4.779 2.316-4.779 5.006v1.831H1.09c-.297 0-.538-.24-.538-.537v-2.649c0-2.772 2.268-4.972 5.04-5 .38-.005.741-.084 1.07-.225.008.018.345 1.555.35 1.574z"/>
            <path fill="#000" d="M16.233 22.999c-.792 0-1.51-.405-1.921-1.08-.154-.254-.485-.335-.739-.18-.253.154-.334.485-.18.738.286.47.673.85 1.124 1.122l-.559 2.528-1.342-1.548c.25-.286.18-.613-.024-.79-.224-.195-.564-.172-.759.052l-.946 1.086-2.38-2.647c.203-.388.326-.814.362-1.258 4.604 1.349 9.21-2.092 9.223-6.88l.003-4.377c.001-2.08-1.68-3.764-3.76-3.765L7.48 5.995c-2.09 0-3.765 1.69-3.766 3.76l-.002 3.487c-.36-.186-.605-.556-.605-.985l.005-6.55c0-.703.573-1.275 1.277-1.275.227 0 .42-.14.5-.338.723-1.803 2.474-3.019 4.466-3.019l7.228.005-.666 1.758c-.111.293.051.62.352.707l.932.27c.89.26 1.565 1.075 1.568 2.074l-.004 6.379c0 .297.24.537.537.538.298 0 .538-.242.538-.537l.005-6.404c-.005-1.415-.97-2.682-2.344-3.082l-.373-.108.737-1.941c.133-.352-.127-.728-.503-.728L9.355 0c-2.307 0-4.372 1.339-5.33 3.385-1.124.175-1.987 1.15-1.988 2.322l-.005 6.55c0 1.044.73 1.898 1.684 2.126.098 2.77 1.759 5.12 4.09 6.232v.137c-.001 1.24-1.006 2.24-2.246 2.24C2.657 22.94.007 25.356.005 28.535l-.002 3.176c0 .297.24.538.537.538.298 0 .538-.241.538-.537l.002-3.176c.002-2.47 2.001-4.47 4.474-4.47.186.003.453-.02.706-.075l.747 3.405c.095.432.642.57.931.238l1.936-2.226.482.536-.002 3.22c0 .297.24.538.537.538.298 0 .538-.24.538-.537l.002-3.226.472-.542 1.943 2.24c.29.334.836.195.931-.235l.753-3.404c.227.048.462.075.702.075 2.473.001 4.473 2.004 4.47 4.476l-.001 3.176c0 .297.24.538.537.538.298 0 .538-.241.538-.537l.002-3.176c.002-3.066-2.478-5.55-5.545-5.552zM4.786 14.114l.003-4.357C4.79 8.275 5.996 7.07 7.477 7.07l6.856.005c1.486.001 2.688 1.204 2.687 2.69l-.003 4.383c-.015 3.365-2.74 6.089-6.12 6.089-3.37-.003-6.11-2.725-6.11-6.123zm3.042 12.009l-.555-2.53c.205-.124.397-.27.574-.44l1.303 1.45-1.322 1.52z"/>
        </g>
        <g transform="translate(13)">
            <circle cx="9.102" cy="9.102" r="9.102" fill="#E24C4B"/>
            <path fill="#D1403F" d="M18.204 9.102c0 5.006-4.096 9.102-9.102 9.102-2.901 0-5.461-1.308-7.11-3.413 1.535 1.252 3.526 1.991 5.688 1.991 5.006 0 9.102-4.096 9.102-9.102 0-2.162-.74-4.153-1.99-5.689 2.104 1.65 3.412 4.21 3.412 7.111z"/>
            <path fill="#FFF" d="M13.255 13.255c-.341.341-.91.341-1.251 0l-2.902-2.901-2.901 2.901c-.341.341-.91.341-1.252 0-.341-.341-.341-.91 0-1.251l2.902-2.902-2.902-2.901c-.341-.341-.341-.91 0-1.252.342-.341.91-.341 1.252 0l2.901 2.902 2.902-2.902c.34-.341.91-.341 1.251 0 .341.342.341.91 0 1.252l-2.901 2.901 2.901 2.902c.341.34.341.91 0 1.251z"/>
        </g>
    </g>
</svg>
