<svg xmlns="http://www.w3.org/2000/svg" width="43" height="33" viewBox="0 0 43 33">
    <g fill="none">
        <path fill="#FFD6A6" d="M21.286 28.612v2.644c0 .298-.241.54-.539.54H1.08c-.297 0-.538-.242-.538-.54v-2.644c0-2.764 2.232-5.048 4.996-5.023.405.004.791-.079 1.14-.23 0 .026.158.329.19.384-.068-.123-.132-.25-.19-.382.986-.43 1.677-1.41 1.677-2.554v-.46l.01-.026c-2.418-1-4.119-3.383-4.119-6.163v-.21c-.96 0-1.684-.759-1.684-1.653v-2.8c-.021-.974.023-4.41 2.506-6.804C7.954-.092 12.528.136 15.842 1.625c.108.048.105.202-.004.248l-.865.355c-.129.053-.101.244.037.259l.42.045c2.229.238 4.088 1.554 5.036 3.124.03.048.02.121-.02.162-.714.756-1.113 1.759-1.113 2.802v3.577c0 .967-.784 1.751-1.752 1.751v.21c0 2.78-1.7 5.162-4.118 6.163l.01.026v.46c0 1.144.69 2.125 1.676 2.554v-.002c.35.151.736.234 1.14.23 2.764-.025 4.997 2.26 4.997 5.023z"/>
        <path fill="#FFDFBA" d="M17.581 14.158c0 3.684-2.987 6.668-6.668 6.668-3.68 0-6.668-2.984-6.668-6.668v-4.37c0-1.375 1.59-2.05 2.593-1.186 1.121.966 2.466 1.6 3.906 1.859.397.071.73-.305.609-.69-.082-.26-.118-.532-.107-.803.017-.416.487-.653.833-.422 1.468.975 3.179 1.477 4.956 1.452.3-.004.546.238.546.539v3.621z"/>
        <path fill="#FFEC8F" d="M20.466 5.656c.03.048.02.121-.02.162-.714.756-1.113 1.759-1.113 2.801v3.578c0 .967-.784 1.75-1.752 1.75v-3.41c0-.3-.245-.543-.546-.539-1.776.025-3.487-.477-4.956-1.452-.346-.23-.816.006-.833.422-.011.27.025.542.107.804.121.384-.212.76-.608.689-1.44-.258-2.784-.892-3.907-1.86-1.002-.864-2.593-.189-2.593 1.186v4.16c-.96 0-1.684-.758-1.684-1.652v-2.8c-.021-.974.023-4.411 2.506-6.804C7.954-.092 12.529.136 15.842 1.625c.108.048.105.202-.004.247l-.865.356c-.129.053-.102.244.037.259l.42.045c2.229.238 4.088 1.554 5.036 3.124z"/>
        <path fill="#42434D" d="M21.286 28.612v2.644c0 .298-.241.54-.539.54H1.08c-.297 0-.538-.242-.538-.54v-2.644c0-2.764 2.232-5.048 4.996-5.023.405.004.791-.079 1.14-.23.813 1.849 2.747 2.973 4.775 2.735 1.615-.19 3.033-1.223 3.698-2.734v-.001c.348.151.735.234 1.14.23 2.763-.025 4.996 2.26 4.996 5.023z"/>
        <path fill="#FFD6A6" d="M6.867 23.743c-.07-.123-.133-.25-.19-.381 0-.015.044.117.19.38z"/>
        <path fill="#F7C388" d="M13.549 21.45c-1.66.695-3.483.75-5.271 0 .091-.378.076-.624.076-1.105l.01-.025c1.622.673 3.473.674 5.099 0l.01.025c0 .481-.015.727.076 1.106z"/>
        <path fill="#FFF2B3" d="M15.838 1.873c-.393.161-.557.262-.858.207-4.981-.91-9.167 1.357-10.178 6.307-.03.142-.098.271-.192.38-.221.259-.361.596-.365.989v2.559c0 1.08-1.627 1.143-1.682.063-.003-.067-.002.11-.002-2.882-.021-.975.023-4.412 2.506-6.805C7.954-.092 12.529.136 15.842 1.625c.108.048.105.202-.004.248z"/>
        <path fill="#FFEBD2" d="M9.404 18.465c1.096.685.231 2.367-.968 1.885-2.467-.99-4.19-3.393-4.19-6.192 0-4.69-.002-4.413.002-4.484.076-1.29 2.017-1.209 2.017.084v3.053c0 2.458 1.293 4.5 3.14 5.654z"/>
        <path fill="#FFD6A6" d="M6.867 23.743c-.07-.123-.133-.25-.19-.381 0-.015.044.117.19.38z"/>
        <path fill="#4D4E59" d="M6.988 23.949c.385.615.05 1.424-.651 1.606-1.693.438-3.91 1.577-3.91 4.79v1.45H1.078c-.297 0-.538-.241-.538-.539v-2.644c0-2.008 1.18-3.772 2.955-4.579 1.605-.72 2.061-.207 3.18-.673.091.205.195.402.312.589z"/>
        <path fill="#2C2C33" d="M14.816 23.949c-.385.615-.05 1.424.652 1.606 1.692.438 3.91 1.577 3.91 4.79v1.45h1.347c.297 0 .539-.241.539-.539v-2.644c0-2.008-1.182-3.772-2.956-4.579-1.605-.72-2.061-.207-3.18-.673-.091.205-.195.402-.312.589z"/>
        <path fill="#000" d="M21.825 28.612v3.183c0 .298-.241.539-.539.539-.298 0-.539-.241-.539-.539v-3.183c0-2.478-2.005-4.484-4.484-4.484-1.173 0-2.237-.597-2.846-1.598-.155-.254-.075-.586.18-.74.254-.155.585-.075.74.18.412.676 1.133 1.08 1.926 1.08 3.074 0 5.562 2.488 5.562 5.562zm-8.277-3.99c-1.937 1.631-4.867 1.13-6.152-1.041.826-.546 1.401-1.448 1.485-2.51 4.6 1.355 9.202-2.098 9.24-6.858v-2.069c0-.297-.242-.539-.54-.539-.297 0-.538.242-.538.54v2.011c0 3.38-2.75 6.13-6.13 6.13s-6.129-2.75-6.129-6.13v-4.37c.005-.93 1.055-1.336 1.702-.778 1.524 1.313 3.402 2.016 5.276 2.108.464.023.74-.516.445-.878-.275-.337-.44-.779-.423-1.243 1.76 1.17 3.816 1.666 5.838 1.514.297-.022.52-.28.497-.578-.022-.296-.28-.518-.578-.496-2.033.153-4.082-.434-5.752-1.77-.277-.22-.686-.12-.83.202-.28.633-.34 1.364-.12 2.06-1.359-.244-2.61-.84-3.65-1.735-1.358-1.172-3.465-.227-3.482 1.557v3.53c-.36-.187-.607-.558-.607-.986V9.482c-.027-1.222.147-4.29 2.34-6.405C7.893.714 11.728.713 14.71 1.753l-.43.177c-.515.211-.408.974.147 1.034l.947.101c1.823.195 3.435 1.146 4.468 2.623-.678.824-1.047 1.85-1.047 2.93v3.675c0 .297.241.539.539.539.297 0 .539-.242.539-.54V8.618c0-.936.361-1.819 1.018-2.485.183-.185.205-.484.078-.69-1.075-1.723-2.673-2.832-4.498-3.277.292-.245.242-.717-.105-.892C14.801.478 12.55-.074 10.438.008 5.058.217 1.909 4.234 2.022 9.5v2.793c0 1.03.722 1.897 1.69 2.13.1 2.752 1.75 5.115 4.103 6.24v.142c0 1.242-1.007 2.246-2.252 2.246-3.074 0-5.561 2.487-5.561 5.561v3.183c0 .298.241.54.539.54.297 0 .538-.242.538-.54v-3.183c0-2.478 2.006-4.484 4.484-4.484.285 0 .567-.036.843-.107 1.583 2.83 5.353 3.517 7.836 1.426.228-.191.257-.531.065-.759-.191-.228-.532-.257-.76-.065z"/>
        <g>
            <path fill="#ACEBE2" d="M19.09 2.54v2.387H.616V2.54c0-1.062.862-1.924 1.924-1.924h14.626c1.063 0 1.924.862 1.924 1.924z" transform="translate(22.62)"/>
            <path fill="#E2E0E0" d="M19.09 4.927v9.237h-2.54c-.638 0-1.154.517-1.154 1.155v2.54H2.54c-1.062 0-1.924-.862-1.924-1.925V4.927H19.09z" transform="translate(22.62)"/>
            <path fill="#F79CAF" d="M19.09 14.164c0 .295-.058.585-.17.853-.11.268-.274.515-.483.724l-1.465 1.465c-.418.418-.985.653-1.576.653v-2.54c0-.638.516-1.155 1.154-1.155h2.54z" transform="translate(22.62)"/>
            <path fill="#98D7CE" d="M19.09 2.54v2.387h-1.54V2.54c0-1.062-.86-1.924-1.924-1.924h1.54c1.063 0 1.924.862 1.924 1.924z" transform="translate(22.62)"/>
            <path fill="#CECCCC" d="M17.551 4.927L19.09 4.927 19.09 14.164 17.551 14.164z" transform="translate(22.62)"/>
            <path fill="#E3889B" d="M19.09 14.164c0 .295-.058.585-.17.853-.11.268-.274.515-.483.724l-1.465 1.465c-.418.418-.985.653-1.576.653v-.617l.037-.036 1.465-1.465c.209-.21.372-.456.483-.724.111-.268.17-.558.17-.853h1.54z" transform="translate(22.62)"/>
            <path fill="#000" d="M17.166 0H2.54C1.14 0 0 1.14 0 2.54v13.394c0 1.401 1.14 2.54 2.54 2.54h12.856c.76 0 1.474-.295 2.012-.833l1.465-1.465c.537-.537.833-1.252.833-2.012V2.54c0-1.4-1.14-2.54-2.54-2.54zM2.54 1.232h14.626c.722 0 1.309.587 1.309 1.308v1.77H1.232V2.54c0-.721.587-1.308 1.308-1.308zM1.232 15.934V5.542h17.243v8.006H16.55c-.976 0-1.77.794-1.77 1.77v1.925H2.54c-.721 0-1.308-.587-1.308-1.309zm16.77-.629l-1.465 1.465c-.153.153-.331.272-.526.352v-1.803c0-.298.242-.54.54-.54h1.803c-.08.195-.2.373-.352.526z" transform="translate(22.62)"/>
            <path fill="#000" d="M14.78 8.621H4.927c-.34 0-.616-.275-.616-.615 0-.34.275-.616.616-.616h9.853c.34 0 .616.276.616.616 0 .34-.276.615-.616.615zM13.548 11.7h-7.39c-.34 0-.616-.275-.616-.615 0-.34.276-.616.616-.616h7.39c.34 0 .616.276.616.616 0 .34-.276.616-.616.616z" transform="translate(22.62)"/>
        </g>
    </g>
</svg>
