<svg xmlns="http://www.w3.org/2000/svg" width="33" height="33" viewBox="0 0 33 33">
    <g fill="none">
        <path fill="#FCE9CC" d="M.642 16.433c0 1.406.185 2.813.56 4.18h30.463c1.447-5.292.091-11.19-4.065-15.346C24.52 2.187 20.483.645 16.445.641h-.023C12.384.645 8.348 2.186 5.267 5.267 2.183 8.35.642 12.391.642 16.433zm13.906-.624c0-.324.107-.59.242-.925l1.643-3.848 1.645 3.848c.134.335.242.6.242.925 0 1.042-.845 1.887-1.887 1.887-1.041 0-1.885-.845-1.885-1.887z"/>
        <path fill="#F29100" d="M1.202 20.613c.699 2.558 2.054 4.976 4.065 6.987 6.167 6.167 16.166 6.167 22.333 0 2.01-2.01 3.365-4.429 4.065-6.987H1.202z"/>
        <path fill="#F66357" stroke="#F66357" stroke-width=".5" d="M14.79 14.884c-.135.335-.242.6-.242.925 0 1.042.844 1.887 1.885 1.887 1.042 0 1.887-.845 1.887-1.887 0-.324-.108-.59-.242-.925l-1.645-3.848-1.643 3.848z"/>
        <g fill="#000">
            <path d="M28.054 4.813C24.95 1.71 20.824 0 16.434 0c-4.39 0-8.517 1.71-11.62 4.813C1.708 7.917 0 12.043 0 16.433c0 4.39 1.71 8.517 4.813 11.621 3.104 3.104 7.231 4.813 11.62 4.813 4.39 0 8.517-1.71 11.621-4.813 3.104-3.104 4.813-7.23 4.813-11.62 0-4.39-1.71-8.517-4.813-11.62zm-.908 22.333c-2.861 2.862-6.666 4.437-10.712 4.437-4.047 0-7.852-1.575-10.713-4.437-1.713-1.712-2.928-3.737-3.647-5.892H13.55c.355 0 .642-.287.642-.641 0-.355-.287-.642-.642-.642H1.707C.526 15.017 1.863 9.579 5.721 5.72c2.861-2.861 6.666-4.437 10.713-4.437 4.046 0 7.85 1.576 10.712 4.437 3.858 3.858 5.195 9.296 4.014 14.25H19.315c-.354 0-.642.287-.642.642 0 .354.288.641.642.641h11.478c-.72 2.155-1.934 4.18-3.647 5.892z"/>
            <path d="M15.79 7.303c0 .355.288.642.643.642.354 0 .642-.287.642-.642V4.42c1.13.062 2.217.284 3.24.645l-.425 1.027c-.135.327.02.703.348.838.08.033.163.05.245.05.252 0 .491-.15.594-.397l.424-1.026c.97.467 1.864 1.064 2.663 1.768l-2.03 2.03c-.252.25-.252.657-.001.908.125.125.29.188.454.188.164 0 .328-.063.454-.188l2.04-2.038c.765.838 1.41 1.787 1.91 2.821l-1.027.424c-.327.136-.483.511-.347.84.102.246.341.396.593.396.082 0 .165-.016.245-.05l1.027-.424c.36 1.023.583 2.11.645 3.24h-2.883c-.355 0-.642.288-.642.642 0 .355.287.642.642.642h3.543c.018 0 .033 0 .047-.002.332-.025.594-.301.594-.64 0-7.166-5.83-12.996-12.995-12.996-7.165 0-12.994 5.83-12.994 12.996 0 .355.287.642.642.642h3.543c.354 0 .642-.287.642-.642 0-.354-.288-.642-.642-.642H4.74c.06-1.13.283-2.217.644-3.24l1.027.425c.08.033.163.049.245.049.252 0 .491-.15.594-.397.135-.328-.02-.703-.348-.839l-1.026-.424c.498-1.034 1.144-1.983 1.91-2.822l2.038 2.039c.125.125.29.188.454.188.164 0 .328-.063.454-.188.25-.25.25-.657 0-.908l-2.03-2.03c.798-.704 1.693-1.301 2.662-1.768l.426 1.026c.102.247.341.396.593.396.082 0 .165-.016.246-.049.327-.136.483-.511.347-.839l-.426-1.026c1.023-.36 2.11-.583 3.24-.645v2.883z"/>
            <path d="M18.673 14.645l-.005-.013-1.645-3.849c-.101-.236-.333-.39-.59-.39-.257 0-.49.154-.59.39l-1.644 3.849-.007.017c-.147.366-.286.713-.286 1.16 0 1.394 1.133 2.529 2.527 2.529 1.394 0 2.529-1.135 2.529-2.53 0-.446-.14-.793-.289-1.163zm-2.24 2.409c-.686 0-1.243-.559-1.243-1.245 0-.189.065-.362.193-.679l1.05-2.46 1.052 2.46c.127.316.193.49.193.679 0 .686-.559 1.245-1.245 1.245zM17.508 25.199h-1.113l.875-1.759c.157-.317.028-.702-.29-.86-.317-.158-.702-.029-.86.289l-1.336 2.686c-.208.418.108.93.577.927h1.111l-.874 1.759c-.158.317-.029.702.289.86.092.046.189.067.285.067.236 0 .463-.13.575-.356l1.336-2.686c.012-.024.022-.05.031-.075.142-.409-.172-.852-.606-.852zM12.539 24.744H10.26c-.354 0-.642.287-.642.642 0 .354.288.641.642.641h2.279c.354 0 .642-.287.642-.641 0-.355-.288-.642-.642-.642zM22.605 24.744h-2.278c-.355 0-.642.287-.642.642 0 .354.287.641.642.641h2.278c.355 0 .642-.287.642-.641 0-.355-.287-.642-.642-.642zM16.436 21.254c.355 0 .64-.287.64-.641 0-.355-.289-.642-.643-.642-.355 0-.642.287-.642.642 0 .354.287.641.642.641h.003z"/>
        </g>
    </g>
</svg>
